<svg xmlns="http://www.w3.org/2000/svg" width="731" height="76" fill="none"><path fill="url(#a)" d="M65.856 2h22.032l-33.6 42.816V74h-19.92V45.056L.624 2h22.032l21.6 27.552zm99.139 72h-21.216l-6-13.872h-37.2l-6 13.872H73.315l32.784-72h26.16zm-45.84-56.832-11.664 26.976h23.376zM232.39 51.44V2h19.296v72H226.63l-35.52-50.544V74h-19.344V2h25.776zM265.047 74V2h19.92v72zm50.321-23.616q.672 4.56 5.472 7.2 4.8 2.592 12.672 2.592 7.392 0 11.52-1.92 4.176-1.92 4.176-5.472 0-1.92-1.056-3.168-1.056-1.296-3.6-2.112-2.496-.816-6.96-1.248l-13.344-1.248q-14.736-1.344-21.552-6.624-6.768-5.328-6.768-14.784 0-7.344 4.32-12.528 4.32-5.232 12.192-7.92Q320.36.416 331.016.416q10.272 0 18.384 2.976t12.816 8.352q4.752 5.376 5.232 12.432h-20.256q-.528-3.888-4.896-6.096-4.32-2.256-11.664-2.256-6.816 0-10.704 1.824-3.84 1.824-3.84 5.184 0 2.64 2.4 4.128 2.4 1.44 8.4 2.064l14.352 1.392q10.224.96 16.368 3.312t8.928 6.432 2.784 10.32q0 7.488-4.512 13.2-4.512 5.664-12.72 8.784t-18.96 3.12q-11.088 0-19.632-3.12-8.544-3.168-13.344-8.88t-5.04-13.2zm130.065-13.632h38.16V74h-14.064l-.96-9.648q-4.656 5.28-11.712 8.256-7.008 2.976-16.272 2.976-11.376 0-20.64-4.416-9.264-4.464-14.64-12.96T399.929 38q0-11.76 5.424-20.208 5.424-8.496 14.88-12.912Q429.737.416 441.689.416q11.568 0 20.304 3.6 8.784 3.6 14.064 9.984 5.328 6.384 6.912 14.736h-20.064q-.96-3.6-3.888-6.24-2.88-2.64-7.344-4.032-4.416-1.44-9.936-1.44-6.768 0-11.664 2.4-4.896 2.352-7.536 7.056T419.897 38q0 6.912 2.832 11.712 2.88 4.8 8.16 7.248 5.328 2.448 12.624 2.448 7.392 0 12.96-2.208 5.616-2.256 8.64-6.432h-19.68zM545.117 74l-19.296-25.92h-10.416V74h-19.92V2h42.768q8.16 0 14.352 2.88 6.24 2.88 9.648 8.16 3.456 5.232 3.456 12.096 0 5.424-2.208 9.888-2.208 4.416-6.336 7.488-4.08 3.072-9.648 4.464L568.205 74zm-29.712-57.216v16.704h20.112q4.704 0 7.392-2.208t2.688-6.144-2.688-6.144q-2.64-2.208-7.392-2.208zm82.858 28.464-2.016 12.624h45.6V74h-66.96l5.472-36-5.472-36h66.48v16.128h-45.12l2.016 12.624h40.32v14.496zm106.843-12.96L730.594 74h-22.608L692.53 47.792 671.266 74h-18V2h19.824v45.312L708.562 2h21.072z" opacity=".1"/><defs><linearGradient id="a" x1="0" x2="730.87" y1="-.14" y2="74.39" gradientUnits="userSpaceOnUse"><stop stop-color="silver"/><stop offset="1" stop-color="#fff"/></linearGradient></defs></svg>