<svg width="30" height="30" viewBox="0 0 30 30" fill="none" xmlns="http://www.w3.org/2000/svg">
<g clipPath="url(#clip0_1018_1908)">
<path d="M17.8016 1.45055C18.1498 1.67778 18.4562 1.93351 18.7501 2.22691C18.7867 2.26279 18.8232 2.29867 18.8609 2.33563C19.8371 3.3668 20.0637 4.74497 20.0575 6.10875C20.0573 6.18286 20.0573 6.18286 20.0571 6.25846C20.0512 7.70363 19.8516 9.08601 19.3592 10.4513C19.3456 10.4889 19.3321 10.5265 19.3182 10.5652C19.2852 10.6569 19.252 10.7486 19.2189 10.8402C19.3323 10.8407 19.3323 10.8407 19.448 10.8412C20.1642 10.8446 20.8805 10.8489 21.5967 10.854C21.9648 10.8566 22.3329 10.8589 22.7011 10.8605C23.0571 10.862 23.413 10.8644 23.769 10.8673C23.9041 10.8683 24.0392 10.869 24.1743 10.8694C25.892 10.8745 27.345 11.1674 28.6216 12.384C29.6668 13.4809 30.04 14.772 30.0212 16.2505C29.9961 17.0227 29.8494 17.7818 29.714 18.5407C29.673 18.7718 29.6334 19.0032 29.5936 19.2346C29.5267 19.6219 29.4589 20.0091 29.3904 20.3961C29.3116 20.841 29.2343 21.2861 29.1577 21.7314C29.0833 22.1641 29.0081 22.5966 28.9325 23.029C28.9006 23.2113 28.869 23.3936 28.8375 23.5759C28.8004 23.7907 28.7626 24.0055 28.7243 24.2201C28.704 24.3347 28.6843 24.4494 28.6647 24.5641C28.4036 26.01 27.7834 27.3219 26.5543 28.1823C25.9488 28.567 25.3718 28.8433 24.6681 29.0043C24.6254 29.0146 24.5827 29.0249 24.5387 29.0355C24.3335 29.0698 24.1319 29.072 23.9245 29.0723C23.8799 29.0726 23.8353 29.0729 23.7894 29.0732C23.6416 29.074 23.4939 29.0744 23.3461 29.0748C23.2948 29.0749 23.2434 29.0751 23.1905 29.0753C22.9168 29.0761 22.643 29.0767 22.3693 29.0769C22.1474 29.0772 21.9255 29.078 21.7036 29.0793C18.1787 29.1004 14.6996 28.7095 11.338 27.6017C11.2696 27.5793 11.2012 27.5568 11.1308 27.5338C10.7139 27.3929 10.3092 27.2328 9.90442 27.0607C9.8533 27.0391 9.80217 27.0174 9.7495 26.9951C9.62467 26.9423 9.49988 26.8893 9.37513 26.8363C9.35769 24.8523 9.34427 22.8682 9.33623 20.8842C9.33528 20.6498 9.3343 20.4155 9.33329 20.1812C9.33309 20.1345 9.33289 20.0879 9.33268 20.0398C9.32937 19.2848 9.32337 18.5299 9.31636 17.7749C9.30923 17 9.30501 16.2252 9.30346 15.4503C9.30242 14.9722 9.29912 14.4943 9.29293 14.0163C9.28842 13.6495 9.28795 13.2828 9.28898 12.916C9.28877 12.7657 9.28725 12.6154 9.28433 12.4651C9.26385 11.3571 9.26385 11.3571 9.44938 11.0814C9.64923 10.8818 9.87951 10.7779 10.1369 10.6644C10.2356 10.593 10.3326 10.519 10.4262 10.441C10.4726 10.403 10.5191 10.365 10.5669 10.3259C10.6184 10.2829 10.6698 10.2399 10.7228 10.1957C10.7543 10.1694 10.7858 10.1432 10.8183 10.1162C12.3084 8.8723 13.7388 7.27521 14.004 5.27379C14.0373 4.86101 14.0492 4.4464 14.0643 4.03263C14.1444 1.91978 14.1444 1.91978 14.7822 1.25852C15.6176 0.542757 16.966 0.962992 17.8016 1.45055Z" fill="#A9A9A9"/>
<path d="M2.24046 9.9503C2.31306 9.94955 2.38566 9.9488 2.46045 9.94802C2.53937 9.94754 2.61828 9.94711 2.6972 9.94671C2.73735 9.94647 2.7775 9.94623 2.81887 9.94599C3.03174 9.94477 3.24461 9.94393 3.45748 9.94338C3.67529 9.94273 3.89306 9.94072 4.11085 9.93839C4.28007 9.93684 4.44928 9.93636 4.61851 9.93616C4.73718 9.93574 4.85585 9.93419 4.97452 9.93262C5.71613 9.93433 6.37396 10.0705 6.91411 10.6052C7.37423 11.1014 7.53583 11.6454 7.52981 12.3114C7.53018 12.3745 7.53054 12.4375 7.53092 12.5024C7.53185 12.7122 7.53112 12.9219 7.53038 13.1317C7.5307 13.2827 7.53111 13.4336 7.53162 13.5846C7.53266 13.9512 7.53244 14.3178 7.53176 14.6845C7.53123 14.9826 7.53116 15.2807 7.53141 15.5788C7.53145 15.6214 7.53149 15.6639 7.53152 15.7077C7.5316 15.7941 7.53167 15.8805 7.53175 15.9669C7.53242 16.7759 7.53165 17.585 7.53039 18.394C7.52934 19.0874 7.52953 19.7807 7.53061 20.4741C7.53186 21.2804 7.53235 22.0866 7.53164 22.8929C7.53156 22.979 7.53149 23.065 7.53141 23.1511C7.53136 23.2146 7.53136 23.2146 7.53131 23.2794C7.5311 23.577 7.53144 23.8745 7.532 24.1721C7.53272 24.573 7.5322 24.9739 7.53085 25.3748C7.53054 25.5218 7.53063 25.6688 7.53114 25.8157C7.53179 26.0167 7.53098 26.2176 7.52981 26.4185C7.53034 26.4764 7.53086 26.5342 7.5314 26.5938C7.52406 27.2479 7.26817 27.7571 6.8189 28.2236C6.40309 28.6086 5.91943 28.7749 5.36011 28.7796C5.32225 28.78 5.28439 28.7804 5.24538 28.7808C5.12039 28.782 4.99542 28.7826 4.87043 28.7832C4.80602 28.7836 4.80602 28.7836 4.74031 28.784C4.51276 28.7852 4.28521 28.786 4.05765 28.7866C3.82414 28.7872 3.59066 28.7892 3.35715 28.7916C3.17633 28.7931 2.99551 28.7936 2.81468 28.7938C2.72869 28.7941 2.64271 28.7947 2.55674 28.7958C1.81736 28.8047 1.20402 28.696 0.644583 28.1833C0.306274 27.8497 0.0216065 27.4299 -0.00756248 26.9429C-0.00769904 26.8966 -0.00783551 26.8503 -0.00797621 26.8025C-0.00827354 26.7488 -0.00857108 26.6951 -0.00887743 26.6397C-0.00890659 26.5809 -0.00893567 26.5221 -0.00896572 26.4616C-0.00922249 26.3989 -0.00947923 26.3363 -0.00974378 26.2718C-0.0105284 26.0612 -0.0108904 25.8506 -0.0112492 25.64C-0.0117121 25.4893 -0.0121966 25.3386 -0.0127011 25.1878C-0.014137 24.735 -0.014995 24.2822 -0.0157515 23.8293C-0.0159691 23.7013 -0.0162019 23.5734 -0.0164401 23.4454C-0.0179191 22.6501 -0.0192108 21.8548 -0.0199398 21.0595C-0.0201114 20.8754 -0.0202851 20.6912 -0.0204617 20.5071C-0.0205054 20.4613 -0.0205492 20.4155 -0.0205942 20.3684C-0.0213351 19.6275 -0.0232809 18.8867 -0.0257235 18.1459C-0.0282125 17.3847 -0.0295903 16.6235 -0.0298961 15.8624C-0.0300958 15.4352 -0.03078 15.0081 -0.0327147 14.581C-0.0345328 14.1789 -0.0348465 13.7769 -0.034157 13.3748C-0.0341441 13.2275 -0.0346298 13.0802 -0.0356602 12.9329C-0.0468429 11.2419 -0.0468429 11.2419 0.614371 10.5491C1.08691 10.1654 1.63284 9.95581 2.24046 9.9503Z" fill="#A9A9A9"/>
</g>
<defs>
<clipPath id="clip0_1018_1908">
<rect width="30" height="30" fill="white"/>
</clipPath>
</defs>
</svg>
