<svg width="30" height="30" viewBox="0 0 30 30" fill="none" xmlns="http://www.w3.org/2000/svg">
<g clipPath="url(#clip0_1018_1884)">
<path d="M13.3886 0.113342C13.7988 0.356827 14.1163 0.731536 14.2968 1.17169C14.3126 1.13415 14.3283 1.09661 14.3444 1.05794C14.5492 0.605992 14.8105 0.276551 15.2673 0.062072C15.7122 -0.0786042 16.2711 -0.0813225 16.7028 0.0986931C17.0946 0.309659 17.3978 0.585607 17.5781 0.99591C17.7003 1.40502 17.7119 1.80123 17.7102 2.22558C17.7106 2.32815 17.7106 2.32815 17.7109 2.43279C17.7113 2.5805 17.7114 2.7282 17.7114 2.8759C17.7113 3.10992 17.712 3.34392 17.7131 3.57793C17.7158 4.24301 17.7172 4.90809 17.7176 5.57317C17.7178 5.9413 17.7189 6.30941 17.7208 6.67753C17.7218 6.87184 17.7222 7.06613 17.7218 7.26045C17.7214 7.47724 17.7224 7.69399 17.7237 7.91077C17.7233 7.97434 17.7228 8.03792 17.7223 8.10341C17.7281 8.64088 17.8729 9.06369 18.2405 9.46271C18.7483 9.91201 19.4266 9.92186 20.0683 9.93878C20.1741 9.94218 20.1741 9.94218 20.2821 9.94565C20.455 9.95114 20.6278 9.95616 20.8007 9.96075C20.8466 11.3135 20.6657 12.472 19.7645 13.5402C19.3948 13.9339 18.9126 14.1007 18.4207 14.2969C17.5651 14.6553 16.6565 15.2779 16.0727 16.0016C15.8855 16.1559 15.7631 16.142 15.5222 16.1413C15.4804 16.1415 15.4386 16.1417 15.3955 16.1419C15.2553 16.1423 15.1151 16.141 14.975 16.1397C14.8745 16.1396 14.774 16.1397 14.6735 16.1398C14.4007 16.1399 14.1278 16.1385 13.855 16.1369C13.5699 16.1354 13.2847 16.1353 12.9996 16.135C12.4597 16.1343 11.9197 16.1323 11.3798 16.13C10.7651 16.1274 10.1504 16.1261 9.53568 16.1249C8.27117 16.1224 7.00666 16.1183 5.74215 16.1131C5.73958 16.0364 5.73701 15.9597 5.73437 15.8806C5.73021 15.7791 5.72602 15.6777 5.7218 15.5762C5.7202 15.5257 5.71861 15.4752 5.71696 15.4233C5.69907 15.0198 5.60889 14.7592 5.35763 14.4395C5.29287 14.347 5.22864 14.254 5.16491 14.1607C5.1334 14.1152 5.10188 14.0696 5.06941 14.0227C4.36322 12.9423 4.15164 11.6251 4.15068 10.3611C4.15041 10.2776 4.15012 10.1941 4.1498 10.1106C4.14904 9.88494 4.14865 9.65928 4.14839 9.43362C4.14822 9.29239 4.14798 9.15117 4.14772 9.00994C4.14692 8.56735 4.14635 8.12476 4.14613 7.68217C4.14586 7.17255 4.14483 6.66295 4.14314 6.15334C4.14187 5.75842 4.14128 5.3635 4.1412 4.96858C4.14114 4.73314 4.1408 4.4977 4.13975 4.26226C4.13878 4.04078 4.13866 3.81932 4.13917 3.59784C4.13921 3.51689 4.13896 3.43595 4.13838 3.35501C4.13354 2.63967 4.21502 2.17453 4.71951 1.65051C5.09683 1.31645 5.53686 1.21379 6.03512 1.23028C6.47203 1.29227 6.83692 1.4398 7.1484 1.75763C7.25926 1.90769 7.35431 2.06147 7.44137 2.22638C7.45587 2.16837 7.47038 2.11036 7.48532 2.0506C7.62345 1.57245 7.85635 1.19187 8.23605 0.867736C8.78108 0.580356 9.31081 0.524733 9.90231 0.702941C10.3278 0.898483 10.6312 1.2233 10.8398 1.64044C10.8484 1.59512 10.857 1.5498 10.8659 1.50311C10.9932 0.912163 11.2265 0.527169 11.7187 0.175597C12.2274 -0.079363 12.8607 -0.12323 13.3886 0.113342Z" fill="#A9A9A9"/>
<path d="M27.0872 16.5084C27.3426 16.7211 27.5899 16.9403 27.832 17.168C27.8666 17.1988 27.9012 17.2296 27.9369 17.2614C28.8819 18.1393 29.4878 19.3983 29.8242 20.625C29.854 20.7282 29.854 20.7282 29.8844 20.8335C30.3286 22.7023 29.9496 24.8093 28.9684 26.4418C28.7511 26.7881 28.5023 27.1071 28.2422 27.4219C28.2053 27.4671 28.1685 27.5122 28.1305 27.5588C27.8977 27.8349 27.6436 28.0735 27.3633 28.3008C27.3127 28.3418 27.2622 28.3828 27.2102 28.4251C25.4886 29.7693 23.4219 30.2163 21.2709 29.9723C21.0497 29.9353 20.8404 29.8864 20.625 29.8243C20.5848 29.8132 20.5447 29.8022 20.5033 29.7909C19.208 29.4295 18.1423 28.7482 17.168 27.8321C17.1161 27.7858 17.1161 27.7858 17.0631 27.7387C15.8213 26.5851 15.0785 24.7559 14.9906 23.0837C14.912 20.902 15.5425 18.9375 17.0261 17.3151C19.6007 14.5769 24.1151 14.1713 27.0872 16.5084ZM21.7383 17.8125C21.6704 18.016 21.6757 18.1852 21.6797 18.3985C21.6253 18.4081 21.5709 18.4178 21.5149 18.4278C20.9318 18.5981 20.5046 19.0562 20.2148 19.5703C19.9617 20.04 19.9196 20.6199 20.0427 21.1341C20.2784 21.8666 20.7325 22.3709 21.3947 22.7445C21.7341 22.9144 22.0975 23.0328 22.4565 23.1539C23.1534 23.3922 23.1534 23.3922 23.3789 23.7305C23.3945 23.8932 23.3945 23.8932 23.3936 24.0784C23.394 24.1698 23.394 24.1698 23.3945 24.2631C23.3752 24.4741 23.3378 24.6033 23.1745 24.7422C22.7514 24.9705 22.3042 24.9672 21.8424 24.8575C21.5729 24.7716 21.3215 24.6688 21.0718 24.5362C20.8709 24.4324 20.7371 24.3906 20.5078 24.4336C20.2567 24.5465 20.0799 24.6679 19.9219 24.8951C19.8301 25.1818 19.8274 25.3921 19.9329 25.6751C20.2809 26.2151 21.0254 26.4514 21.6211 26.6016C21.6268 26.6405 21.6326 26.6794 21.6385 26.7195C21.6911 27.0302 21.7316 27.2596 21.9727 27.4805C22.2245 27.6562 22.4235 27.6849 22.7197 27.6389C22.9519 27.5663 23.1087 27.4322 23.2617 27.2461C23.3868 26.9905 23.3902 26.7664 23.3789 26.4844C23.4214 26.4779 23.4638 26.4714 23.5075 26.4647C24.0128 26.3451 24.466 25.964 24.752 25.5394C25.0291 25.0665 25.1695 24.6085 25.1623 24.0601C25.1616 23.9871 25.1616 23.9871 25.1609 23.9127C25.1415 23.2059 24.8786 22.7335 24.3993 22.2258C23.9071 21.7624 23.2374 21.56 22.6087 21.3544C22.5358 21.3302 22.5358 21.3302 22.4615 21.3055C22.3965 21.2845 22.3965 21.2845 22.3301 21.263C22.1929 21.205 22.0911 21.1246 21.9727 21.0352C21.934 21.0352 21.8953 21.0352 21.8555 21.0352C21.7406 20.7581 21.7198 20.5652 21.7969 20.2735C21.9959 20.0744 22.2071 20.029 22.4817 20.0208C22.8433 20.024 23.1052 20.1454 23.3826 20.3723C23.5565 20.4902 23.6979 20.5008 23.9062 20.5078C24.2117 20.4131 24.4026 20.2823 24.6094 20.0391C24.7087 19.7412 24.7159 19.4967 24.5837 19.2151C24.3012 18.8913 23.9552 18.6192 23.5547 18.4571C23.4967 18.4571 23.4387 18.4571 23.3789 18.4571C23.3774 18.4231 23.3759 18.3891 23.3743 18.3541C23.3465 17.9707 23.2583 17.7302 22.9614 17.4683C22.4505 17.2684 22.0813 17.3943 21.7383 17.8125Z" fill="#A9A9A9"/>
<path d="M27.7148 2.40193C28.1262 2.69251 28.5976 3.05421 28.8281 3.51521C28.8441 3.64452 28.8441 3.64452 28.8501 3.79719C28.853 3.84712 28.8558 3.89704 28.8588 3.94848C28.8139 4.17218 28.711 4.25284 28.5352 4.39411C28.3472 4.47651 28.3472 4.47651 28.136 4.5406C28.0795 4.55838 28.0795 4.55838 28.0218 4.57652C27.8142 4.64143 27.6054 4.70186 27.3965 4.76238C27.3542 4.77492 27.3119 4.78746 27.2684 4.80038C27.1868 4.82446 27.105 4.84776 27.023 4.87019C26.7842 4.94038 26.6671 4.99847 26.543 5.21443C26.506 5.4755 26.5158 5.73838 26.5173 6.00178C26.5162 6.07372 26.515 6.14567 26.5138 6.21979C26.5138 6.28916 26.5139 6.35854 26.5139 6.43002C26.5138 6.49327 26.5137 6.55652 26.5136 6.62169C26.551 6.84421 26.6133 6.93517 26.7773 7.08943C26.9626 7.17131 26.9626 7.17131 27.1745 7.22103C27.2525 7.24251 27.3305 7.26398 27.4085 7.28546C27.5305 7.31768 27.6527 7.34946 27.7749 7.38104C27.8937 7.41211 28.0119 7.44469 28.1303 7.47738C28.2009 7.49577 28.2715 7.51415 28.3443 7.5331C28.5901 7.64083 28.6744 7.75049 28.8281 7.96833C28.897 8.17548 28.8868 8.34463 28.8281 8.55427C28.6787 8.7791 28.4977 8.95668 28.3008 9.14021C28.265 9.17699 28.2292 9.21377 28.1923 9.25167C27.54 9.88528 26.5608 10.2533 25.6641 10.3121C25.6184 10.3151 25.5727 10.3181 25.5256 10.3212C24.4508 10.3595 23.3804 10.0114 22.5586 9.31599C22.4008 9.16701 22.2506 9.01098 22.1008 8.85402C21.3451 8.07463 20.5238 8.29773 19.3945 8.2613C19.3945 6.79177 19.3945 5.32224 19.3945 3.80818C19.9359 3.78884 20.4773 3.7695 21.0352 3.74958C21.5532 3.56119 21.7878 3.46224 22.1484 3.10505C23.6759 1.60931 25.8509 1.2787 27.7148 2.40193Z" fill="#A9A9A9"/>
<path d="M5.8151 17.8059C5.89176 17.8058 5.96842 17.8057 6.0474 17.8057C6.13255 17.8059 6.21769 17.8061 6.30283 17.8063C6.39234 17.8063 6.48184 17.8063 6.57134 17.8063C6.81454 17.8063 7.05773 17.8066 7.30093 17.807C7.555 17.8074 7.80907 17.8074 8.06315 17.8075C8.54437 17.8077 9.02559 17.8081 9.50681 17.8087C10.0546 17.8094 10.6024 17.8097 11.1503 17.81C12.2772 17.8106 13.4042 17.8116 14.5312 17.813C14.487 18.0107 14.4121 18.1781 14.3216 18.3595C13.873 19.2627 13.5574 20.2116 13.4179 21.2114C13.4077 21.2822 13.3975 21.353 13.387 21.4259C13.3391 21.8614 13.3532 22.301 13.3557 22.7385C13.356 22.8292 13.3562 22.92 13.3565 23.0107C13.3571 23.2313 13.3581 23.4518 13.3593 23.6723C12.334 23.6764 11.3088 23.6795 10.2835 23.6814C9.80741 23.6823 9.33135 23.6836 8.85528 23.6856C8.4403 23.6873 8.02533 23.6885 7.61035 23.6889C7.39065 23.6891 7.17097 23.6896 6.95128 23.6909C6.70592 23.6923 6.46058 23.6924 6.21521 23.6923C6.14251 23.6929 6.06981 23.6935 5.99491 23.6942C5.3712 23.692 5.3712 23.692 5.09761 23.4965C4.83 23.1566 4.79746 22.9178 4.7952 22.4934C4.79491 22.4518 4.79462 22.4103 4.79432 22.3674C4.79347 22.2302 4.79307 22.093 4.79274 21.9557C4.79241 21.86 4.79207 21.7642 4.79173 21.6685C4.79112 21.4677 4.79077 21.2669 4.79057 21.0662C4.79025 20.8098 4.78884 20.5534 4.78717 20.297C4.78608 20.0992 4.78578 19.9013 4.78569 19.7035C4.78551 19.609 4.78504 19.5145 4.78427 19.4201C4.77721 18.4911 4.77721 18.4911 4.98043 18.1059C5.24675 17.8463 5.45197 17.8056 5.8151 17.8059Z" fill="#A9A9A9"/>
<path d="M2.46092 3.80859C2.46092 5.27813 2.46092 6.74766 2.46092 8.26172C1.65473 8.20413 1.0946 8.13007 0.52733 7.55859C0.0283379 6.90343 -0.0743948 6.31076 -1.32713e-05 5.50781C0.125954 4.93666 0.516117 4.42899 0.996081 4.10156C1.50794 3.83002 1.84852 3.80859 2.46092 3.80859Z" fill="#A9A9A9"/>
</g>
<defs>
<clipPath id="clip0_1018_1884">
<rect width="30" height="30" fill="white"/>
</clipPath>
</defs>
</svg>
