<svg width="30" height="30" viewBox="0 0 30 30" fill="none" xmlns="http://www.w3.org/2000/svg">
<g clipPath="url(#clip0_1018_1876)">
<path d="M14.3372 0.923336C14.3848 0.922762 14.4323 0.922188 14.4813 0.921597C17.8286 0.889542 20.7045 1.95953 23.1263 4.29911C23.4774 4.65753 23.7826 5.04736 24.0821 5.44902C24.1187 5.49766 24.1553 5.5463 24.1931 5.59642C25.4146 7.2785 26.2431 9.43062 26.264 11.5245C26.2646 11.572 26.2652 11.6196 26.2657 11.6686C26.2758 12.7221 26.2611 13.7349 26.0157 14.7654C26.0056 14.8107 25.9956 14.8559 25.9853 14.9026C25.3357 17.7915 23.3866 20.2561 20.9219 21.8283C20.2873 22.2216 19.6201 22.5208 18.9258 22.7928C18.8871 22.8081 18.8483 22.8234 18.8083 22.8392C17.8294 23.2179 16.7174 23.443 15.6675 23.4492C15.6206 23.4496 15.5737 23.45 15.5253 23.4504C15.3746 23.4515 15.224 23.4518 15.0733 23.4519C15.0219 23.452 14.9705 23.452 14.9175 23.4521C14.17 23.4512 13.4459 23.4316 12.7149 23.2615C12.6698 23.2515 12.6246 23.2414 12.5781 23.231C11.5139 22.9891 10.5107 22.6067 9.55083 22.0896C9.4975 22.0614 9.4975 22.0614 9.44308 22.0327C8.90939 21.7491 8.43491 21.4168 7.9688 21.035C7.93684 21.009 7.90488 20.9831 7.87195 20.9564C7.12987 20.3522 6.48996 19.6926 5.91802 18.9256C5.88139 18.8769 5.84475 18.8283 5.80701 18.7782C4.58549 17.0961 3.75704 14.944 3.73609 12.8501C3.73551 12.8026 3.73494 12.755 3.73435 12.706C3.70252 9.3819 4.74586 6.59083 7.0313 4.15995C7.06544 4.12264 7.09958 4.08533 7.13475 4.04689C8.90212 2.18133 11.7763 0.948957 14.3372 0.923336ZM14.4727 5.09745C14.2174 5.37253 14.0567 5.66331 13.8923 5.99902C13.8661 6.05162 13.8399 6.10421 13.8129 6.1584C13.7296 6.32578 13.6471 6.49347 13.5645 6.66117C13.5091 6.7727 13.4536 6.8842 13.3981 6.99569C13.3443 7.10412 13.2905 7.21257 13.2367 7.32104C13.2123 7.37044 13.1878 7.41984 13.1625 7.47074C13.1389 7.51883 13.1152 7.56691 13.0908 7.61646C13.0668 7.66379 13.0428 7.71112 13.0181 7.75989C12.9449 7.91137 12.9449 7.91137 12.8943 8.08401C12.832 8.26621 12.7749 8.40244 12.6563 8.55449C12.3981 8.67316 12.1391 8.69676 11.8582 8.72455C11.7793 8.7346 11.7004 8.74495 11.6216 8.75557C11.4146 8.78279 11.2073 8.8066 10.9998 8.82954C10.6679 8.86681 10.3366 8.90927 10.0054 8.9517C9.89016 8.96597 9.77475 8.97871 9.65934 8.99141C9.18235 9.04857 8.90728 9.10123 8.59502 9.481C8.48231 9.69391 8.44178 9.83692 8.43755 10.0779C8.51842 10.3385 8.6171 10.5007 8.81091 10.6885C8.92959 10.8036 9.04567 10.9212 9.16196 11.0388C9.25862 11.136 9.35529 11.2332 9.45195 11.3304C9.52373 11.4029 9.52373 11.4029 9.59695 11.4768C9.91639 11.7976 10.2458 12.0999 10.5917 12.3917C10.6871 12.4732 10.78 12.5569 10.8729 12.6414C10.9048 12.6677 10.9367 12.694 10.9696 12.7211C11.0686 12.8135 11.1289 12.887 11.1915 13.0076C11.1953 13.1455 11.1953 13.1455 11.1772 13.302C11.1706 13.3592 11.164 13.4165 11.1572 13.4755C11.1191 13.7519 11.0739 14.0264 11.0246 14.301C11.0034 14.4223 10.9823 14.5436 10.9611 14.6648C10.9279 14.8531 10.8946 15.0413 10.8612 15.2295C10.8286 15.4131 10.7966 15.5968 10.7646 15.7805C10.7545 15.8363 10.7445 15.8921 10.7341 15.9496C10.6157 16.6282 10.6157 16.6282 10.8703 17.244C11.0027 17.3959 11.1167 17.4591 11.3086 17.5193C11.657 17.5427 11.8559 17.5082 12.1692 17.3399C12.2501 17.2973 12.331 17.2547 12.4119 17.2122C12.4582 17.1873 12.5045 17.1625 12.5523 17.1369C12.7457 17.0342 12.9403 16.934 13.1351 16.8341C13.527 16.6327 13.527 16.6327 13.9185 16.4306C14.0215 16.3773 14.1246 16.3242 14.2278 16.2712C14.4317 16.1623 14.6277 16.0436 14.8207 15.9163C15.0543 15.8436 15.2551 15.9773 15.464 16.0796C15.5231 16.1118 15.5821 16.1439 15.643 16.1769C15.7429 16.231 15.7429 16.231 15.8449 16.2861C15.8798 16.3051 15.9146 16.3241 15.9505 16.3436C16.0597 16.4031 16.1691 16.4621 16.2785 16.521C16.5604 16.6727 16.8421 16.8248 17.123 16.9782C17.2891 17.0689 17.4555 17.1587 17.6221 17.2483C17.6705 17.2751 17.7188 17.302 17.7686 17.3296C18.0934 17.5033 18.3983 17.6335 18.7729 17.5447C19.04 17.4017 19.2026 17.2748 19.336 16.992C19.4344 16.5707 19.364 16.1796 19.2849 15.7611C19.2732 15.6951 19.2614 15.6292 19.2492 15.5613C19.2117 15.352 19.1732 15.143 19.1346 14.9339C19.0963 14.7244 19.0582 14.5148 19.0205 14.3052C18.9971 14.1751 18.9734 14.0452 18.9491 13.9153C18.9191 13.7497 18.8926 13.5841 18.8672 13.4178C18.855 13.3466 18.8427 13.2754 18.8301 13.202C18.8912 12.8821 19.1144 12.7102 19.344 12.4908C19.3927 12.4426 19.4414 12.3945 19.4917 12.3449C19.6476 12.1913 19.8048 12.0391 19.9622 11.887C20.0671 11.7842 20.1719 11.6813 20.2766 11.5782C20.4692 11.389 20.6623 11.2002 20.8561 11.0122C20.8976 10.9719 20.939 10.9316 20.9816 10.8901C21.0499 10.8238 21.1183 10.7575 21.1869 10.6916C21.3829 10.5008 21.4869 10.3448 21.5625 10.0779C21.5475 9.70316 21.4169 9.4572 21.1524 9.19902C20.9642 9.08421 20.7874 9.05218 20.5705 9.02012C20.5006 9.00957 20.4306 8.99902 20.3585 8.98815C20.2831 8.97722 20.2078 8.96629 20.1302 8.95503C20.052 8.94341 19.9738 8.93175 19.8956 8.92006C19.732 8.89569 19.5684 8.87158 19.4047 8.84768C19.1948 8.81702 18.9849 8.78593 18.775 8.75468C18.5749 8.7249 18.3748 8.69529 18.1746 8.66572C18.0613 8.64897 18.0613 8.64897 17.9457 8.63188C17.876 8.6217 17.8064 8.61152 17.7347 8.60103C17.6732 8.59202 17.6117 8.58301 17.5484 8.57372C17.4076 8.55193 17.4076 8.55193 17.2852 8.55449C17.2659 8.48809 17.2659 8.48809 17.2463 8.42036C17.1364 8.11519 16.9946 7.828 16.8531 7.53642C16.8221 7.47261 16.7912 7.40881 16.7593 7.34307C16.6943 7.20916 16.6291 7.0753 16.5638 6.9415C16.4664 6.74122 16.3704 6.54034 16.2745 6.33937C16.2135 6.21345 16.1525 6.08757 16.0914 5.96171C16.0496 5.87341 16.0496 5.87341 16.007 5.78333C15.8256 5.41369 15.6667 5.1676 15.2898 4.97844C14.9864 4.9003 14.7377 4.91973 14.4727 5.09745Z" fill="#A9A9A9"/>
<path d="M25.957 19.2773C25.9957 19.2773 26.0343 19.2773 26.0742 19.2773C26.1024 19.3275 26.1024 19.3275 26.1311 19.3787C26.5286 20.0863 26.9308 20.7908 27.3407 21.4913C27.7091 22.121 28.0742 22.7525 28.4374 23.3852C28.526 23.5389 28.6156 23.6919 28.7056 23.8447C28.7538 23.9275 28.8019 24.0102 28.8501 24.093C28.882 24.1462 28.882 24.1462 28.9146 24.2004C29.0725 24.4747 29.1451 24.7309 29.1007 25.0475C28.9926 25.3725 28.8778 25.5292 28.5937 25.7227C28.4353 25.8018 28.3124 25.7883 28.1351 25.7879C28.0636 25.7879 27.992 25.7879 27.9183 25.7879C27.84 25.7876 27.7616 25.7873 27.6832 25.787C27.6033 25.7869 27.5233 25.7868 27.4433 25.7867C27.2328 25.7865 27.0222 25.7859 26.8116 25.7853C26.5968 25.7847 26.3819 25.7844 26.1671 25.7841C25.7455 25.7835 25.3239 25.7825 24.9023 25.7812C24.8847 25.8264 24.8671 25.8716 24.8489 25.9181C24.7801 26.0865 24.6972 26.2375 24.6061 26.3949C24.5704 26.4567 24.5347 26.5186 24.498 26.5823C24.4598 26.6479 24.4216 26.7134 24.3823 26.781C24.3628 26.8145 24.3433 26.8481 24.3233 26.8826C24.2233 27.0547 24.1231 27.2266 24.0226 27.3984C23.9484 27.5254 23.8745 27.6525 23.8008 27.7798C23.7071 27.9416 23.6127 28.1029 23.518 28.2642C23.4766 28.3361 23.4766 28.3361 23.4343 28.4095C23.2635 28.6975 23.1002 28.9089 22.7929 29.0625C22.4763 29.0914 22.1873 29.104 21.8921 28.9783C21.5003 28.5958 21.2493 28.073 20.9802 27.6013C20.9226 27.5009 20.865 27.4006 20.8074 27.3002C20.7477 27.1962 20.6881 27.0921 20.6285 26.9879C20.4314 26.6439 20.2334 26.3005 20.0354 25.957C19.9998 25.8953 19.9643 25.8335 19.9277 25.7698C19.8937 25.7108 19.8596 25.6517 19.8246 25.5908C19.7922 25.5344 19.7597 25.478 19.7264 25.4198C19.6604 25.3076 19.5927 25.1964 19.5234 25.0861C19.4906 25.0339 19.4578 24.9818 19.424 24.928C19.3944 24.882 19.3647 24.836 19.3342 24.7886C19.2773 24.668 19.2773 24.668 19.3359 24.4922C19.4531 24.4287 19.4531 24.4287 19.608 24.3695C19.6653 24.347 19.7225 24.3244 19.7815 24.3012C19.8746 24.2652 19.8746 24.2652 19.9695 24.2285C22.331 23.2772 24.4796 21.5881 25.8526 19.4254C25.8871 19.3766 25.9215 19.3277 25.957 19.2773Z" fill="#A9A9A9"/>
<path d="M3.92578 19.2773C4.16294 19.3564 4.20696 19.4725 4.34326 19.6802C5.44337 21.3168 6.91502 22.5746 8.61328 23.5547C8.65064 23.5764 8.688 23.5982 8.72649 23.6206C9.34532 23.9773 9.99733 24.2387 10.6641 24.4922C10.6641 24.7405 10.6325 24.8113 10.5135 25.0204C10.4807 25.0786 10.4479 25.1367 10.4141 25.1965C10.3782 25.259 10.3422 25.3214 10.3052 25.3857C10.2683 25.4507 10.2313 25.5157 10.1933 25.5826C10.0774 25.7859 9.96073 25.9887 9.84375 26.1914C9.8081 26.2533 9.77245 26.3151 9.73572 26.3789C9.5331 26.7299 9.32863 27.0797 9.12274 27.4288C9.02315 27.5981 8.92449 27.768 8.82591 27.938C8.76362 28.0443 8.70129 28.1506 8.63892 28.2568C8.611 28.3054 8.58308 28.3539 8.55432 28.4038C8.38246 28.6942 8.21982 28.9077 7.91016 29.0625C7.59348 29.0914 7.30448 29.104 7.00928 28.9783C6.58871 28.5677 6.32858 28.0033 6.04248 27.4951C5.96346 27.3549 5.88428 27.2149 5.8049 27.0749C5.78554 27.0407 5.76618 27.0065 5.74624 26.9713C5.56747 26.6576 5.37684 26.352 5.18346 26.0472C5.09766 25.8984 5.09766 25.8984 5.09766 25.7812C5.05366 25.7818 5.00966 25.7823 4.96433 25.7828C4.54883 25.7875 4.13333 25.7911 3.71781 25.7934C3.50421 25.7946 3.29062 25.7963 3.07703 25.7989C2.87073 25.8015 2.66446 25.8029 2.45815 25.8035C2.3415 25.8041 2.22485 25.806 2.10821 25.8078C1.44784 25.808 1.44784 25.808 1.17188 25.5469C0.968608 25.2997 0.884347 25.1061 0.878906 24.7852C0.976375 24.3344 1.21737 23.9502 1.4502 23.5583C1.50955 23.457 1.5689 23.3557 1.62821 23.2543C1.68946 23.1497 1.75092 23.0453 1.8124 22.9409C2.00143 22.6194 2.18704 22.2959 2.37305 21.9727C2.44543 21.8471 2.51784 21.7216 2.59026 21.5961C2.62641 21.5335 2.66256 21.4708 2.6998 21.4063C2.7978 21.2364 2.8958 21.0666 2.99381 20.8968C3.0543 20.792 3.11479 20.6871 3.17528 20.5823C3.25118 20.4508 3.3271 20.3192 3.40302 20.1877C3.57791 19.8846 3.75249 19.5814 3.92578 19.2773Z" fill="#A9A9A9"/>
<path d="M14.9414 7.91016C14.9801 7.91016 15.0187 7.91016 15.0586 7.91016C15.0869 7.96897 15.1153 8.02779 15.1445 8.08838C15.2504 8.30775 15.3575 8.52656 15.4649 8.74522C15.5111 8.83969 15.557 8.93432 15.6026 9.02909C15.6684 9.16577 15.7353 9.30189 15.8025 9.43794C15.8324 9.50104 15.8324 9.50104 15.863 9.56541C16.0008 9.84126 16.142 10.023 16.4062 10.1953C16.5713 10.2419 16.7152 10.2738 16.883 10.2967C16.9499 10.3074 16.9499 10.3074 17.0182 10.3183C17.1595 10.3406 17.301 10.3614 17.4426 10.3821C17.5848 10.4036 17.7269 10.4255 17.869 10.4478C17.957 10.4616 18.0452 10.4748 18.1335 10.4875C18.3379 10.5187 18.4578 10.5474 18.6328 10.6641C18.5876 10.7081 18.5424 10.7521 18.4958 10.7974C18.3271 10.9618 18.1592 11.127 17.9916 11.2924C17.9191 11.3637 17.8464 11.4348 17.7735 11.5057C17.6684 11.608 17.564 11.711 17.4598 11.8142C17.4112 11.861 17.4112 11.861 17.3616 11.9088C17.1169 12.1533 16.9451 12.3924 16.925 12.7509C16.9346 12.8228 16.9346 12.8228 16.9444 12.8961C16.9513 12.9513 16.9582 13.0065 16.9654 13.0634C16.9742 13.1224 16.9831 13.1814 16.9922 13.2422C17.0013 13.3054 17.0103 13.3686 17.0197 13.4338C17.0494 13.6338 17.0809 13.8335 17.113 14.0332C17.1346 14.1681 17.156 14.303 17.1774 14.4379C17.1868 14.4967 17.1962 14.5555 17.206 14.6161C17.2266 14.7656 17.2266 14.7656 17.2266 14.9414C16.9705 14.863 16.7445 14.7625 16.509 14.6354C16.4399 14.5986 16.3709 14.5619 16.3018 14.5252C16.1945 14.4678 16.0874 14.4103 15.9805 14.3524C15.8762 14.296 15.7715 14.2404 15.6667 14.185C15.6048 14.1516 15.5429 14.1183 15.4792 14.084C15.232 13.9777 15.0082 13.9173 14.7414 13.977C14.6986 13.9958 14.6559 14.0147 14.6118 14.0341C14.562 14.0561 14.5121 14.078 14.4608 14.1006C14.1482 14.2514 13.8413 14.4119 13.5352 14.5752C13.4047 14.6447 13.274 14.714 13.1433 14.783C13.0863 14.8134 13.0293 14.8439 12.9705 14.8752C12.832 14.9414 12.832 14.9414 12.7148 14.9414C12.7523 14.4308 12.8327 13.9355 12.9274 13.4328C13.0198 12.9254 13.0757 12.5743 12.7734 12.1289C12.6662 12.0009 12.5499 11.8846 12.4301 11.7684C12.3979 11.7365 12.3658 11.7046 12.3326 11.6716C12.2309 11.571 12.1287 11.4709 12.0264 11.3708C11.9568 11.3022 11.8873 11.2335 11.8179 11.1647C11.6486 10.9974 11.4787 10.8306 11.3086 10.6641C11.5194 10.5382 11.7223 10.5114 11.9637 10.4775C12.0467 10.4654 12.1298 10.4532 12.2129 10.441C12.343 10.4224 12.4731 10.4041 12.6032 10.3859C12.7295 10.3681 12.8556 10.3496 12.9817 10.331C13.0569 10.3204 13.1322 10.3098 13.2097 10.2989C13.5761 10.2198 13.794 10.0976 14.0039 9.78516C14.0837 9.63971 14.1592 9.49523 14.2319 9.34639C14.2523 9.30519 14.2728 9.26398 14.2939 9.22153C14.3587 9.09097 14.423 8.96016 14.4873 8.82935C14.5314 8.74033 14.5755 8.65134 14.6196 8.56236C14.7272 8.34514 14.8344 8.12771 14.9414 7.91016Z" fill="#A9A9A9"/>
</g>
<defs>
<clipPath id="clip0_1018_1876">
<rect width="30" height="30" fill="white"/>
</clipPath>
</defs>
</svg>
