<svg width="30" height="30" viewBox="0 0 30 30" fill="none" xmlns="http://www.w3.org/2000/svg">
<g clipPath="url(#clip0_1018_1914)">
<path d="M14.1796 0.17554C14.5843 0.462058 14.8135 0.773107 15 1.23023C15.0245 1.17392 15.0245 1.17392 15.0496 1.11647C15.2753 0.629462 15.5528 0.240186 16.0679 0.0388975C16.6464 -0.100422 17.2022 -0.0601182 17.7209 0.240085C18.1296 0.54284 18.3399 0.918006 18.457 1.40601C18.4809 1.65081 18.4803 1.89386 18.4786 2.13968C18.4789 2.24725 18.4789 2.24725 18.4793 2.357C18.4796 2.512 18.4797 2.66697 18.4793 2.82197C18.4786 3.06757 18.4793 3.31316 18.4802 3.55876C18.4823 4.16863 18.4827 4.77849 18.4826 5.38837C18.4825 5.86283 18.4829 6.33729 18.4849 6.81175C18.4859 7.05538 18.4858 7.29898 18.4849 7.54261C18.4844 7.73046 18.4855 7.91831 18.4864 8.10617C18.4858 8.17281 18.4852 8.23946 18.4846 8.30813C18.4899 8.89829 18.6395 9.36874 19.0466 9.803C19.3937 10.106 19.7811 10.2026 20.232 10.2136C20.2733 10.2148 20.3147 10.216 20.3573 10.2173C20.4893 10.2211 20.6212 10.2246 20.7531 10.228C20.8427 10.2306 20.9322 10.2331 21.0217 10.2357C21.241 10.242 21.4603 10.2479 21.6796 10.2537C21.7249 11.9076 21.2623 13.0445 20.1235 14.2606C19.9157 14.4793 19.704 14.6888 19.4789 14.8897C18.9976 15.2799 18.9976 15.2799 18.7616 15.8212C18.7636 15.9703 18.7678 16.1195 18.7749 16.2684C18.75 16.4646 18.75 16.4646 18.6096 16.6223C18.424 16.7576 18.424 16.7576 18.2444 16.8674C18.0533 16.9736 18.0533 16.9736 17.9634 17.0922C17.7795 17.3045 17.6347 17.3926 17.3549 17.4394C17.0657 17.4582 16.7764 17.4529 16.4868 17.4487C16.3753 17.4485 16.2638 17.4486 16.1523 17.4488C15.8505 17.449 15.5488 17.4466 15.247 17.4437C14.9313 17.4411 14.6156 17.4409 14.2999 17.4404C13.7025 17.4391 13.1051 17.4358 12.5077 17.4316C11.8274 17.4271 11.1471 17.4248 10.4667 17.4227C9.06764 17.4185 7.66856 17.4112 6.26948 17.4021C6.27047 17.3425 6.27146 17.2829 6.27247 17.2215C6.27548 16.9963 6.27494 16.7712 6.27342 16.5459C6.27324 16.4492 6.27397 16.3525 6.27571 16.2558C6.28827 15.5042 6.1434 15.0646 5.68354 14.4724C5.40271 14.0293 5.18892 13.562 5.0207 13.0662C5.00046 13.0069 5.00046 13.0069 4.9798 12.9464C4.74525 12.2127 4.66111 11.5025 4.66378 10.7348C4.66344 10.6461 4.66303 10.5573 4.66256 10.4686C4.66152 10.2304 4.66157 9.99235 4.66191 9.75424C4.66209 9.55459 4.66173 9.35495 4.66138 9.1553C4.66056 8.6843 4.66065 8.21331 4.66132 7.74232C4.66199 7.25773 4.66116 6.77316 4.65959 6.28857C4.65829 5.87075 4.65791 5.45294 4.65825 5.03512C4.65845 4.78632 4.65831 4.53753 4.6573 4.28873C4.65639 4.05508 4.65663 3.82145 4.65773 3.58779C4.65794 3.50241 4.65776 3.41702 4.65715 3.33164C4.65291 2.6954 4.73101 2.21189 5.16925 1.73239C5.60079 1.35112 6.03831 1.26732 6.59793 1.27234C7.04872 1.30969 7.42059 1.49513 7.73433 1.81616C7.84079 1.96781 7.93669 2.12335 8.02729 2.28491C8.0381 2.23673 8.0489 2.18854 8.06002 2.13889C8.21289 1.55053 8.48202 1.10717 9.0124 0.787112C9.444 0.592471 9.94826 0.569135 10.4084 0.682284C10.8997 0.882922 11.2531 1.22681 11.4843 1.69898C11.4919 1.64471 11.4919 1.64471 11.4997 1.58934C11.5923 1.03118 11.7941 0.617041 12.2415 0.259997C12.7658 -0.103668 13.628 -0.173809 14.1796 0.17554Z" fill="#A9A9A9"/>
<path d="M27.9721 18.5201C28.8707 19.3728 29.4916 20.4306 29.8242 21.6212C29.8429 21.6835 29.8617 21.7458 29.881 21.81C30.3282 23.5802 29.9376 25.4279 29.024 26.9697C28.8311 27.283 28.6082 27.5614 28.3594 27.8321C28.3332 27.8608 28.307 27.8895 28.28 27.9191C27.4226 28.8473 26.351 29.4851 25.1367 29.8243C25.0744 29.8431 25.0121 29.8618 24.9479 29.8811C23.1777 30.3283 21.33 29.9377 19.7882 29.0242C19.4749 28.8312 19.1968 28.608 18.9258 28.3595C18.8401 28.282 18.8401 28.282 18.7527 28.2029C17.483 27.0168 16.7626 25.3436 16.6992 23.6134C16.6695 21.7511 17.3259 20.0452 18.6108 18.6899C21.1492 16.0981 25.3291 16.0887 27.9721 18.5201ZM22.7671 20.1191C22.5273 20.3834 22.4935 20.6186 22.4905 20.9633C22.49 21.017 22.4894 21.0708 22.4888 21.1263C22.4886 21.1837 22.4883 21.2411 22.4881 21.3003C22.4878 21.3601 22.4874 21.4198 22.4871 21.4813C22.4865 21.6075 22.4861 21.7337 22.4859 21.8599C22.4853 22.0522 22.4835 22.2446 22.4817 22.4369C22.4813 22.5598 22.481 22.6826 22.4808 22.8054C22.48 22.8626 22.4793 22.9198 22.4786 22.9788C22.48 23.404 22.5347 23.6895 22.8259 24.0162C23.0391 24.2021 23.1484 24.2072 23.4271 24.2097C23.4987 24.2105 23.5703 24.2112 23.6441 24.212C23.7226 24.2125 23.8011 24.2129 23.8797 24.2133C23.939 24.2137 23.939 24.2137 23.9995 24.214C24.2088 24.2152 24.4182 24.2161 24.6276 24.2166C24.8434 24.2173 25.0592 24.2193 25.275 24.2216C25.4412 24.2232 25.6075 24.2236 25.7738 24.2239C25.8919 24.2243 26.01 24.2258 26.128 24.2274C26.6482 24.232 26.6482 24.232 27.0703 23.965C27.2276 23.7588 27.2945 23.5798 27.3047 23.3204C27.2508 23.0717 27.1717 22.8956 26.9934 22.7125C26.6489 22.5042 26.3414 22.4838 25.9502 22.4887C25.8748 22.4889 25.8748 22.4889 25.798 22.4892C25.6386 22.4898 25.4792 22.4913 25.3198 22.4928C25.2113 22.4934 25.1028 22.4939 24.9943 22.4944C24.7293 22.4957 24.4643 22.4977 24.1992 22.5001C24.2004 22.4398 24.2017 22.3795 24.2029 22.3174C24.2072 22.0927 24.2099 21.868 24.2121 21.6432C24.2133 21.5462 24.2149 21.4491 24.2169 21.352C24.2197 21.2121 24.2211 21.0722 24.2221 20.9323C24.2233 20.8892 24.2245 20.8462 24.2258 20.8018C24.2259 20.4454 24.1034 20.2466 23.866 19.9916C23.4808 19.7938 23.088 19.8156 22.7671 20.1191Z" fill="#A9A9A9"/>
<path d="M6.75284 19.0753C6.85567 19.0754 6.95849 19.0754 7.06131 19.0752C7.33948 19.0752 7.61763 19.0765 7.8958 19.0782C8.18686 19.0797 8.47792 19.0798 8.76898 19.0801C9.31972 19.0808 9.87044 19.0827 10.4212 19.0851C11.0483 19.0877 11.6755 19.089 12.3027 19.0902C13.5924 19.0926 14.8822 19.0967 16.1719 19.1019C16.1022 19.2773 16.031 19.4504 15.951 19.6213C15.1283 21.405 14.9635 23.0874 15.2063 25.0291C15.2155 25.1034 15.2248 25.1777 15.2344 25.2543C14.0115 25.2584 12.7886 25.2615 11.5657 25.2634C10.9979 25.2643 10.43 25.2655 9.86222 25.2676C9.36726 25.2693 8.87231 25.2704 8.37735 25.2708C8.11531 25.2711 7.85327 25.2716 7.59124 25.2729C7.34447 25.2741 7.09772 25.2744 6.85095 25.2742C6.76051 25.2742 6.67007 25.2746 6.57963 25.2752C6.45583 25.2761 6.33207 25.2759 6.20827 25.2754C6.13908 25.2756 6.06989 25.2758 5.9986 25.2759C5.61162 25.2336 5.34766 25.0796 5.09768 24.7855C5.02623 24.5712 5.02951 24.3732 5.02872 24.1499C5.02833 24.1031 5.02795 24.0563 5.02755 24.0081C5.0264 23.8531 5.02571 23.6981 5.02513 23.5432C5.02489 23.4902 5.02465 23.4372 5.0244 23.3826C5.02318 23.1022 5.02234 22.8217 5.02179 22.5412C5.02115 22.2519 5.01913 21.9626 5.0168 21.6733C5.01527 21.4506 5.01478 21.2278 5.01457 21.005C5.01429 20.8984 5.01361 20.7917 5.01252 20.6851C5.01109 20.5356 5.01115 20.3862 5.01155 20.2367C5.0108 20.193 5.01005 20.1492 5.00928 20.1042C5.01228 19.7999 5.06973 19.569 5.27346 19.3363C5.70721 19.0069 6.23313 19.0707 6.75284 19.0753Z" fill="#A9A9A9"/>
<path d="M28.932 2.57276C29.956 3.3636 29.956 3.3636 30.0217 3.76546C30.023 3.81463 30.0243 3.8638 30.0256 3.91446C30.028 3.96318 30.0303 4.0119 30.0327 4.06209C29.9865 4.28291 29.8741 4.42533 29.707 4.56998C29.5191 4.6581 29.5191 4.6581 29.3079 4.72013C29.2513 4.73751 29.2513 4.73751 29.1936 4.75525C29.0721 4.79238 28.9502 4.82783 28.8281 4.86295C28.6996 4.90023 28.5713 4.93776 28.4431 4.97612C28.3623 5.00021 28.2813 5.02357 28.2 5.04607C27.9605 5.11681 27.8144 5.196 27.6562 5.39029C27.5298 5.6431 27.5842 5.98054 27.583 6.25821C27.5818 6.32789 27.5806 6.39757 27.5793 6.46936C27.579 6.53662 27.5787 6.60388 27.5784 6.67318C27.5779 6.73472 27.5773 6.79626 27.5768 6.85967C27.6009 7.05726 27.6542 7.16565 27.7734 7.32389C27.9467 7.41092 27.9467 7.41092 28.1543 7.46671C28.1921 7.47845 28.2299 7.4902 28.2688 7.5023C28.4448 7.55673 28.6217 7.60799 28.7987 7.65923C28.8994 7.68852 29 7.7182 29.1005 7.74825C29.1979 7.77732 29.2957 7.80547 29.3937 7.83256C29.6781 7.91729 29.8462 7.99141 30 8.26139C30.0621 8.5085 30.0513 8.74626 29.9352 8.97504C29.8466 9.09718 29.7517 9.2061 29.6484 9.31607C29.6201 9.34961 29.5918 9.38315 29.5626 9.4177C28.8053 10.2579 27.6669 10.6513 26.5681 10.739C25.3771 10.7702 24.2745 10.401 23.3789 9.60904C23.2256 9.45794 23.077 9.30233 22.9279 9.14704C22.1814 8.38905 21.1883 8.58994 20.1562 8.55436C20.1562 7.02682 20.1562 5.49928 20.1562 3.92545C20.7943 3.90611 21.4324 3.88678 22.0898 3.86686C22.5202 3.69247 22.5202 3.69247 22.8552 3.44205C22.8936 3.4067 22.932 3.37135 22.9715 3.33493C23.0478 3.25986 23.1229 3.18355 23.1967 3.10605C24.6764 1.55416 27.1898 1.37039 28.932 2.57276Z" fill="#A9A9A9"/>
<path d="M2.98812 3.92578C2.98812 5.45332 2.98812 6.98086 2.98812 8.55469C1.29619 8.55469 1.29619 8.55469 0.591268 7.85843C0.0678871 7.29291 -0.0292203 6.76119 -0.0159551 6.00929C0.009391 5.40086 0.274217 4.93613 0.702963 4.51172C1.39523 3.931 2.10785 3.92578 2.98812 3.92578Z" fill="#A9A9A9"/>
</g>
<defs>
<clipPath id="clip0_1018_1914">
<rect width="30" height="30" fill="white"/>
</clipPath>
</defs>
</svg>
