<svg width="30" height="30" viewBox="0 0 30 30" fill="none" xmlns="http://www.w3.org/2000/svg">
<g clipPath="url(#clip0_1018_1893)">
<path d="M6.18888 -0.0255699C6.25931 -0.0261553 6.32975 -0.0267406 6.40231 -0.0273438C7.72434 -0.0147358 9.07511 0.480554 10.078 1.34772C10.1342 1.39538 10.1903 1.44304 10.2481 1.49215C11.3967 2.49016 12.1959 3.95865 12.3223 5.48716C12.3301 5.70435 12.3319 5.92044 12.3302 6.13776C12.3301 6.21408 12.3299 6.29039 12.3298 6.36902C12.3224 6.89968 12.2613 7.38482 12.1158 7.8942C12.0706 8.08424 12.0653 8.14396 12.1288 8.32038C12.1962 8.41428 12.1962 8.41428 12.2846 8.49945C12.3345 8.55042 12.3345 8.55042 12.3854 8.60241C12.4223 8.63916 12.4592 8.67591 12.4971 8.71377C12.536 8.75325 12.575 8.79273 12.6151 8.83341C12.746 8.96604 12.8776 9.09803 13.0092 9.23003C13.1031 9.32479 13.1969 9.4196 13.2907 9.51443C13.5459 9.77224 13.8018 10.0295 14.0578 10.2865C14.2177 10.447 14.3774 10.6076 14.5372 10.7682C14.9795 11.2129 15.4219 11.6575 15.865 12.1014C15.8934 12.1298 15.9217 12.1582 15.951 12.1875C15.9794 12.2159 16.0078 12.2444 16.0371 12.2737C16.0947 12.3314 16.1523 12.3891 16.2098 12.4468C16.2384 12.4755 16.267 12.5041 16.2964 12.5336C16.7594 12.9975 17.221 13.4626 17.6821 13.9284C18.1555 14.4065 18.6301 14.8836 19.1057 15.3596C19.3727 15.6268 19.6393 15.8946 19.9046 16.1635C20.1542 16.4164 20.4051 16.6678 20.6572 16.9182C20.7495 17.0104 20.8413 17.1031 20.9326 17.1964C21.0572 17.3235 21.1835 17.4487 21.3104 17.5736C21.3462 17.611 21.382 17.6484 21.4189 17.6869C21.6162 17.8772 21.6162 17.8772 21.8756 17.9394C22.0093 17.9254 22.1349 17.9023 22.2655 17.8712C22.3258 17.8615 22.3861 17.8518 22.4482 17.8419C22.5015 17.8322 22.5548 17.8225 22.6098 17.8126C24.3522 17.517 26.0113 17.7816 27.4657 18.8013C28.8169 19.8292 29.7592 21.2693 29.9999 22.9688C30.1465 25.118 30.1465 25.118 29.6081 25.8619C29.3973 26.0631 29.1728 26.1224 28.8866 26.1329C28.3916 26.0649 28.1044 25.7458 27.7731 25.3991C27.6905 25.3151 27.6079 25.231 27.5252 25.147C27.4104 25.0299 27.2964 24.9121 27.1824 24.7941C26.983 24.588 26.7827 24.3827 26.5818 24.1781C26.4752 24.0693 26.3691 23.9601 26.2635 23.8504C25.7543 23.3292 25.3506 23.0648 24.6093 23.0274C24.1896 23.0479 23.8213 23.2372 23.496 23.4962C23.1749 23.8543 23.0529 24.2158 23.0089 24.69C23.0807 25.5226 23.5837 26.0054 24.1598 26.5634C24.2645 26.6663 24.3691 26.7693 24.4738 26.8723C24.6372 27.0324 24.8008 27.1923 24.9649 27.3517C25.1244 27.507 25.283 27.6632 25.4415 27.8195C25.4906 27.8667 25.5396 27.9139 25.5902 27.9625C25.8999 28.2695 26.1219 28.5351 26.1387 28.9898C26.078 29.2912 26.005 29.5102 25.7482 29.6924C24.7347 30.2122 23.251 30.1555 22.1827 29.836C22.1133 29.8128 22.044 29.7896 21.9726 29.7657C21.9044 29.7431 21.8363 29.7205 21.7661 29.6973C20.1593 29.1186 18.9161 27.9314 18.1786 26.4002C17.5812 25.0082 17.5842 23.4869 17.9296 22.0313C17.9643 21.8928 17.9643 21.8928 17.9296 21.7383C17.8246 21.5884 17.6961 21.464 17.5661 21.3357C17.527 21.2959 17.4879 21.2561 17.4476 21.2152C17.3159 21.0816 17.1832 20.9492 17.0505 20.8167C16.956 20.7213 16.8616 20.6259 16.7673 20.5305C16.5105 20.2711 16.2527 20.0127 15.9947 19.7545C15.7796 19.539 15.5648 19.3232 15.35 19.1074C14.8724 18.6275 14.394 18.1482 13.9151 17.6695C13.872 17.6264 13.872 17.6264 13.828 17.5824C13.7848 17.5393 13.7848 17.5393 13.7408 17.4953C13.2745 17.0291 12.8096 16.5614 12.3454 16.0931C11.8688 15.6123 11.3911 15.1326 10.9123 14.654C10.6434 14.3852 10.3751 14.116 10.1079 13.8457C9.85651 13.5915 9.6038 13.3388 9.34997 13.0871C9.25698 12.9944 9.1645 12.9012 9.07256 12.8075C8.94704 12.6797 8.81986 12.5539 8.69208 12.4284C8.656 12.3908 8.61992 12.3532 8.58275 12.3145C8.38432 12.1232 8.38432 12.1232 8.12349 12.0609C7.99013 12.075 7.86466 12.098 7.73429 12.129C7.67947 12.1365 7.62466 12.144 7.56818 12.1518C7.49859 12.1623 7.49859 12.1623 7.42759 12.1731C5.60342 12.4426 3.97461 12.1996 2.44552 11.1361C1.09161 10.1202 0.374664 8.72712 0.0239488 7.10593C-0.0879412 6.21294 -0.159383 4.90736 0.410073 4.16022C0.544246 3.99547 0.653413 3.94874 0.860512 3.90387C0.90787 3.89254 0.955228 3.88121 1.00402 3.86954C1.3892 3.86429 1.64184 4.02591 1.91129 4.28332C2.0103 4.38355 2.10853 4.48455 2.20611 4.58617C2.28667 4.668 2.36723 4.74983 2.44781 4.83163C2.55993 4.94578 2.67136 5.06059 2.78279 5.17541C2.97731 5.37579 3.17239 5.57564 3.36824 5.77473C3.47215 5.88051 3.57561 5.98672 3.67855 6.09344C4.10098 6.52436 4.5303 6.92434 5.15617 6.97272C5.68893 6.97108 6.16756 6.81102 6.56242 6.44538C6.91331 5.99727 7.03188 5.54513 6.97257 4.98053C6.75632 4.02118 5.65595 3.25047 4.98699 2.59042C4.84492 2.45011 4.7032 2.30944 4.56153 2.16872C4.51795 2.12593 4.47437 2.08314 4.42948 2.03905C3.94825 1.56018 3.94825 1.56018 3.90235 1.24701C3.90705 0.690067 3.90705 0.690067 4.10148 0.468815C4.66792 -0.0414861 5.4675 -0.0220681 6.18888 -0.0255699Z" fill="#A9A9A9"/>
<path d="M9.37502 15.5859C9.68432 15.8444 9.97246 16.1167 10.2567 16.4023C10.3019 16.4475 10.3471 16.4927 10.3937 16.5393C10.5418 16.6875 10.6898 16.836 10.8378 16.9844C10.941 17.0877 11.0442 17.191 11.1474 17.2942C11.4181 17.5652 11.6886 17.8363 11.9591 18.1074C12.2355 18.3845 12.5121 18.6613 12.7887 18.9381C13.3306 19.4807 13.8724 20.0235 14.4141 20.5664C14.1889 20.8353 13.9561 21.0916 13.7079 21.3394C13.674 21.3735 13.6401 21.4075 13.6052 21.4427C13.4927 21.5557 13.3799 21.6685 13.2672 21.7813C13.186 21.8628 13.1048 21.9442 13.0237 22.0257C12.804 22.2462 12.5841 22.4665 12.3641 22.6867C12.2265 22.8244 12.089 22.9622 11.9515 23.1C11.5206 23.5316 11.0897 23.9631 10.6586 24.3945C10.1618 24.8915 9.66543 25.3889 9.16936 25.8867C8.78521 26.2721 8.40071 26.6572 8.01596 27.042C7.78646 27.2716 7.55711 27.5013 7.3281 27.7314C7.11269 27.9477 6.89687 28.1637 6.68071 28.3793C6.6017 28.4583 6.52283 28.5374 6.44412 28.6167C5.94192 29.1224 5.47669 29.5836 4.7864 29.8132C4.68341 29.8482 4.68341 29.8482 4.57834 29.884C3.79317 30.1294 2.86447 30.0909 2.10939 29.7656C2.0345 29.7368 2.0345 29.7368 1.9581 29.7075C1.07162 29.325 0.482794 28.4992 0.118579 27.6382C-0.152643 26.846 -0.0943732 25.8413 0.234394 25.0781C0.253578 25.0282 0.272763 24.9783 0.29253 24.9268C0.624684 24.1571 1.41186 23.5407 1.99809 22.9562C2.07901 22.8753 2.15992 22.7944 2.24082 22.7135C2.45832 22.4959 2.67599 22.2786 2.89369 22.0613C3.12199 21.8334 3.35011 21.6053 3.57825 21.3772C4.00933 20.9463 4.44056 20.5156 4.87184 20.0849C5.36324 19.5941 5.85448 19.1032 6.3457 18.6123C7.35529 17.6033 8.36508 16.5946 9.37502 15.5859ZM8.71921 20.2024C8.66686 20.2544 8.6145 20.3063 8.56056 20.3599C8.41779 20.5016 8.27559 20.6439 8.13351 20.7863C8.01456 20.9054 7.89535 21.0243 7.77613 21.1431C7.49483 21.4236 7.21398 21.7045 6.93342 21.9858C6.6445 22.2754 6.35485 22.5642 6.06481 22.8527C5.81522 23.101 5.56609 23.3497 5.31732 23.5988C5.16899 23.7473 5.02051 23.8957 4.87158 24.0436C4.70555 24.2086 4.54048 24.3744 4.3755 24.5404C4.3018 24.6133 4.3018 24.6133 4.22662 24.6876C3.94907 24.9687 3.72756 25.2111 3.67472 25.6165C3.71526 25.9465 3.85365 26.1483 4.10158 26.3672C4.31416 26.5015 4.48866 26.4911 4.73673 26.4656C5.14902 26.3359 5.44562 25.9776 5.74145 25.6809C5.79322 25.6294 5.845 25.578 5.89834 25.5249C6.03959 25.3843 6.18057 25.2435 6.32141 25.1025C6.43925 24.9846 6.55727 24.8669 6.67528 24.7492C6.95373 24.4714 7.23187 24.1932 7.50982 23.9149C7.79615 23.6283 8.08301 23.3421 8.37014 23.0562C8.61713 22.8103 8.86378 22.564 9.11016 22.3174C9.25711 22.1704 9.40418 22.0234 9.55158 21.8769C9.71591 21.7134 9.87951 21.5493 10.0431 21.385C10.1161 21.3127 10.1161 21.3127 10.1905 21.2389C10.6059 20.8255 10.6059 20.8255 10.7483 20.2734C10.7373 20.0235 10.653 19.8781 10.4883 19.6875C10.2638 19.4936 10.0969 19.4271 9.79822 19.422C9.34478 19.5304 9.03568 19.8843 8.71921 20.2024Z" fill="#A9A9A9"/>
<path d="M27.583 -0.0187531C27.6551 -0.0220387 27.6551 -0.0220387 27.7286 -0.0253906C28.1189 0.0346952 28.4005 0.307208 28.6679 0.577713C28.7007 0.610362 28.7335 0.643011 28.7674 0.676649C28.8361 0.745278 28.9046 0.814127 28.9729 0.883184C29.0771 0.988252 29.1821 1.09235 29.2873 1.19638C29.3543 1.26354 29.4213 1.33075 29.4882 1.39803C29.5194 1.4288 29.5505 1.45957 29.5826 1.49128C29.8356 1.74914 30.0235 2.01391 30.033 2.38359C30.0213 2.62085 29.9719 2.7761 29.8544 2.98189C29.8224 3.03823 29.7905 3.09457 29.7575 3.15262C29.7035 3.24508 29.7035 3.24508 29.6484 3.3394C29.6098 3.40584 29.5711 3.47227 29.5312 3.54072C29.3993 3.76605 29.2658 3.99038 29.1321 4.21465C29.0831 4.29695 29.0341 4.37926 28.9852 4.46157C28.5453 5.20014 28.1011 5.9361 27.6524 6.66932C27.5722 6.80072 27.4925 6.93235 27.4132 7.06431C27.3716 7.13318 27.3299 7.20204 27.2882 7.2709C27.2511 7.33262 27.214 7.39433 27.1757 7.45792C27.006 7.71371 26.8385 7.86979 26.543 7.96831C26.1895 8.00296 25.9515 7.93171 25.6641 7.73393C25.4986 7.58571 25.345 7.42923 25.1953 7.26518C24.858 7.54547 24.5477 7.84624 24.2384 8.15688C24.1852 8.21008 24.132 8.26328 24.0771 8.31809C23.9324 8.46285 23.7878 8.60778 23.6432 8.75275C23.4917 8.90464 23.34 9.05636 23.1883 9.20811C22.9016 9.49497 22.6151 9.78198 22.3286 10.0691C22.0023 10.3961 21.6757 10.7229 21.3492 11.0498C20.6779 11.7217 20.0069 12.3937 19.3359 13.066C19.1413 12.9736 19.0123 12.8738 18.8598 12.7203C18.8129 12.6734 18.766 12.6265 18.7177 12.5782C18.6676 12.5275 18.6176 12.4768 18.566 12.4246C18.5143 12.3728 18.4626 12.3209 18.4093 12.2675C18.2723 12.13 18.1356 11.9922 17.999 11.8543C17.8594 11.7134 17.7194 11.5729 17.5795 11.4324C17.3053 11.1569 17.0314 10.8811 16.7578 10.605C16.8388 10.423 16.9321 10.2989 17.0728 10.1584C17.1341 10.0967 17.1341 10.0967 17.1967 10.0337C17.264 9.96689 17.264 9.96689 17.3327 9.89874C17.3799 9.85136 17.4272 9.80398 17.4759 9.75516C17.6325 9.59833 17.7896 9.44192 17.9466 9.28552C18.0557 9.17651 18.1648 9.06748 18.2738 8.95843C18.5027 8.72963 18.7317 8.50107 18.9609 8.27265C19.225 8.00951 19.4888 7.74607 19.7523 7.48244C20.0067 7.22808 20.2612 6.97388 20.5158 6.71977C20.6237 6.61205 20.7315 6.50429 20.8394 6.39649C20.9907 6.24532 21.1422 6.09435 21.2937 5.94343C21.3379 5.89925 21.382 5.85507 21.4275 5.80955C21.6655 5.57295 21.9086 5.34602 22.1636 5.12776C22.3022 5.00663 22.4305 4.87777 22.5586 4.74565C22.4558 4.5237 22.3187 4.34553 22.1684 4.15399C22.0102 3.92944 22.0132 3.72345 22.0312 3.45659C22.1904 3.01439 22.556 2.80275 22.9454 2.57494C22.9821 2.55334 23.0187 2.53175 23.0565 2.5095C23.1352 2.46323 23.2139 2.41709 23.2927 2.37109C23.5034 2.24805 23.7135 2.12394 23.9236 1.99998C23.9664 1.9748 24.0092 1.94962 24.0532 1.92367C24.4727 1.67641 24.8893 1.42461 25.3052 1.17143C25.3389 1.1509 25.3727 1.13038 25.4075 1.10923C25.7404 0.906836 26.0728 0.703769 26.4045 0.499435C26.4539 0.469072 26.5032 0.438708 26.5541 0.407425C26.6435 0.352359 26.7329 0.297135 26.8221 0.241714C27.082 0.0815669 27.2776 -0.00974223 27.583 -0.0187531Z" fill="#A9A9A9"/>
</g>
<defs>
<clipPath id="clip0_1018_1893">
<rect width="30" height="30" fill="white"/>
</clipPath>
</defs>
</svg>
