<svg width="30" height="30" viewBox="0 0 30 30" fill="none" xmlns="http://www.w3.org/2000/svg">
<g clip-path="url(#clip0_1018_1900)">
<path d="M5.9444 0.929476C6.00971 0.929178 6.07502 0.928881 6.14231 0.928575C6.21406 0.928546 6.28582 0.928516 6.35974 0.928486C6.47409 0.928101 6.47409 0.928101 6.59074 0.927708C6.80252 0.927008 7.0143 0.926676 7.22608 0.926409C7.45444 0.926059 7.68279 0.925379 7.91115 0.924751C8.4628 0.923314 9.01445 0.922457 9.56611 0.921701C9.72198 0.921483 9.87785 0.92125 10.0337 0.921012C11.0021 0.919533 11.9704 0.918241 12.9387 0.917512C13.163 0.917341 13.3873 0.917167 13.6116 0.91699C13.6952 0.916925 13.6952 0.916925 13.7805 0.916858C14.6829 0.916117 15.5852 0.914171 16.4876 0.911729C17.4145 0.909241 18.3414 0.907862 19.2684 0.907556C19.7886 0.907356 20.3088 0.906671 20.8291 0.904737C21.2723 0.903093 21.7155 0.902454 22.1587 0.903108C22.3846 0.903411 22.6105 0.903249 22.8364 0.901792C23.082 0.900222 23.3275 0.900949 23.573 0.901879C23.6436 0.901066 23.7142 0.900252 23.7869 0.899414C24.581 0.90679 25.1919 1.19394 25.7619 1.73333C26.2037 2.2013 26.4325 2.78314 26.4379 3.41717C26.4384 3.45998 26.439 3.50279 26.4396 3.54689C26.4414 3.68822 26.4426 3.82954 26.4437 3.97088C26.4441 4.01928 26.4445 4.06768 26.4449 4.11755C26.4468 4.3737 26.4482 4.62986 26.4494 4.88602C26.4504 5.09762 26.4525 5.30918 26.4554 5.52076C26.4589 5.77672 26.4607 6.03264 26.4613 6.28862C26.4618 6.38592 26.4629 6.48322 26.4646 6.58051C26.4789 7.43574 26.4789 7.43574 26.2794 7.69535C26.0693 7.88214 25.8272 7.98217 25.565 8.07564C25.5144 8.0948 25.4637 8.11396 25.4114 8.1337C25.2421 8.19722 25.0722 8.25883 24.9022 8.32032C24.7806 8.3651 24.659 8.40994 24.5374 8.45481C24.2038 8.57731 23.8696 8.69796 23.5351 8.81806C23.2012 8.93801 22.8674 9.0585 22.5336 9.17895C22.4189 9.22034 22.3042 9.26169 22.1895 9.30305C21.3949 9.58963 20.6015 9.87942 19.8082 10.1697C19.744 10.1932 19.6798 10.2167 19.6136 10.2409C19.2607 10.37 19.2607 10.37 18.9077 10.4992C18.5428 10.6328 18.1776 10.7658 17.8124 10.8984C18.2158 11.0863 18.6271 11.2422 19.046 11.3919C19.1479 11.4286 19.1479 11.4286 19.2519 11.466C19.3974 11.5184 19.5429 11.5707 19.6884 11.6229C19.9163 11.7047 20.1441 11.787 20.3719 11.8694C20.4099 11.8831 20.448 11.8969 20.4871 11.911C20.5642 11.9389 20.6412 11.9667 20.7182 11.9946C20.9104 12.0642 21.1028 12.1337 21.2951 12.2032C21.3512 12.2235 21.3512 12.2235 21.4084 12.2442C21.652 12.3322 21.8957 12.4201 22.1393 12.5078C22.4364 12.6149 22.7331 12.7228 23.0295 12.8314C23.1371 12.8706 23.2449 12.9096 23.3527 12.9482C23.5012 13.0015 23.6493 13.0558 23.7974 13.1104C23.8402 13.1254 23.883 13.1405 23.9271 13.1561C24.2723 13.2854 24.4657 13.4663 24.6678 13.7695C24.7075 14.0892 24.7075 14.3801 24.5799 14.6777C24.2401 15.0176 23.7329 15.1512 23.2888 15.3095C23.2227 15.3333 23.1566 15.3571 23.0885 15.3817C22.9089 15.4464 22.7292 15.5108 22.5495 15.5751C22.3614 15.6426 22.1733 15.7103 21.9852 15.778C21.9082 15.8058 21.8311 15.8335 21.7541 15.8612C21.7156 15.8751 21.6771 15.889 21.6374 15.9033C21.5193 15.9458 21.4011 15.9883 21.283 16.0307C20.7311 16.2292 20.1799 16.4295 19.629 16.6308C19.5537 16.6583 19.4785 16.6858 19.4032 16.7132C19.1141 16.8188 18.8249 16.9244 18.5359 17.0303C18.3375 17.103 18.139 17.1754 17.9405 17.2479C17.8814 17.2696 17.8223 17.2913 17.7614 17.3137C17.7078 17.3332 17.6541 17.3528 17.5988 17.3729C17.5287 17.3986 17.5287 17.3986 17.4572 17.4247C17.3436 17.4609 17.3436 17.4609 17.2264 17.4609C17.2264 17.4996 17.2264 17.5383 17.2264 17.5781C17.2904 17.5895 17.2904 17.5895 17.3557 17.601C17.5109 17.6349 17.6468 17.6803 17.7941 17.739C17.8476 17.7602 17.901 17.7814 17.9561 17.8033C18.0141 17.8265 18.072 17.8498 18.1317 17.8737C18.1933 17.8982 18.2548 17.9227 18.3183 17.9479C18.5217 18.0289 18.7249 18.1102 18.9282 18.1915C19.0693 18.2478 19.2105 18.3041 19.3517 18.3603C19.6474 18.4782 19.9431 18.5962 20.2387 18.7144C20.6558 18.8811 21.0731 19.0475 21.4904 19.2138C21.8143 19.343 22.1382 19.4722 22.4621 19.6014C22.5314 19.6291 22.6007 19.6568 22.6721 19.6852C22.8674 19.7632 23.0627 19.8412 23.258 19.9192C23.3163 19.9425 23.3745 19.9658 23.4346 19.9897C23.4876 20.0109 23.5406 20.0321 23.5952 20.054C23.6413 20.0724 23.6875 20.0909 23.7351 20.1099C23.8475 20.1563 23.8475 20.1563 23.9647 20.2148C24.0999 20.222 24.2353 20.2253 24.3707 20.2269C24.4124 20.2275 24.4541 20.228 24.4971 20.2286C24.6354 20.2305 24.7736 20.2319 24.9118 20.2334C25.0076 20.2346 25.1033 20.2358 25.199 20.2371C25.4512 20.2403 25.7034 20.2432 25.9556 20.246C26.2128 20.249 26.4701 20.2522 26.7273 20.2555C27.2322 20.2618 27.7371 20.2677 28.2421 20.2734C28.2415 20.2368 28.241 20.2001 28.2405 20.1624C28.2353 19.7803 28.2317 19.3982 28.2292 19.016C28.228 18.8735 28.2264 18.7309 28.2244 18.5884C28.2215 18.3833 28.2202 18.1783 28.2192 17.9732C28.218 17.9096 28.2167 17.8461 28.2155 17.7806C28.2154 17.4204 28.2331 17.2064 28.4764 16.9336C28.7824 16.6959 29.1006 16.7125 29.4725 16.7578C29.7431 16.886 29.8661 17.0215 29.9999 17.2852C30.0221 17.441 30.0221 17.441 30.0226 17.6117C30.0234 17.7091 30.0234 17.7091 30.0243 17.8085C30.0241 17.8793 30.0238 17.95 30.0235 18.0228C30.0241 18.1352 30.0241 18.1352 30.0248 18.2498C30.0258 18.4549 30.0257 18.66 30.0254 18.8651C30.0252 19.0365 30.0256 19.2078 30.0259 19.3792C30.0268 19.7836 30.0267 20.188 30.026 20.5924C30.0253 21.0092 30.0261 21.426 30.0277 21.8429C30.029 22.2011 30.0294 22.5593 30.0291 22.9176C30.0289 23.1314 30.029 23.3451 30.03 23.5589C30.0311 23.7974 30.0303 24.0358 30.0293 24.2743C30.0298 24.3449 30.0304 24.4155 30.031 24.4882C30.0277 24.8581 30.0183 25.0919 29.7655 25.3711C29.503 25.599 29.2044 25.5801 28.8728 25.5867C28.7856 25.5886 28.7856 25.5886 28.6966 25.5906C28.5737 25.5928 28.4508 25.5944 28.3278 25.5955C28.1408 25.5981 27.9543 25.6051 27.7673 25.6121C26.8378 25.631 26.8378 25.631 26.5825 25.4076C26.4505 25.2451 26.3514 25.0848 26.2499 24.9023C25.6525 24.2635 24.7661 23.8962 23.8986 23.8458C22.9799 23.8558 22.2073 24.1409 21.5038 24.7266C21.4659 24.7578 21.4281 24.789 21.3891 24.8211C20.6597 25.4846 20.4179 26.3582 20.3319 27.3047C16.8128 27.3047 13.2936 27.3047 9.66783 27.3047C9.62916 27.0147 9.59049 26.7246 9.55064 26.4258C9.37788 25.877 9.15625 25.4608 8.78893 25.0195C8.74213 24.9628 8.74213 24.9628 8.6944 24.9049C8.09474 24.2457 7.21207 23.8921 6.33371 23.8458C5.37376 23.8555 4.45842 24.1978 3.76085 24.8694C3.66052 24.9751 3.57632 25.0744 3.50044 25.1992C3.38744 25.3831 3.30083 25.5217 3.08961 25.5896C2.92823 25.605 2.77299 25.6058 2.61095 25.6009C2.52321 25.6007 2.52321 25.6007 2.43369 25.6006C2.31037 25.5999 2.18704 25.598 2.06375 25.5951C1.87544 25.5908 1.68739 25.5903 1.49904 25.5904C1.37895 25.5892 1.25886 25.5878 1.13878 25.5862C1.08274 25.586 1.0267 25.5857 0.968964 25.5855C0.639214 25.5761 0.431158 25.5413 0.175645 25.3125C0.0236691 25.0992 -0.0221928 24.9538 -0.022852 24.693C-0.0234324 24.6281 -0.0240127 24.5631 -0.0246106 24.4962C-0.0243469 24.4254 -0.0240831 24.3547 -0.0238113 24.2819C-0.0242135 24.2069 -0.0246156 24.132 -0.02503 24.0548C-0.0260801 23.8498 -0.0260121 23.6447 -0.0256777 23.4396C-0.0254965 23.2682 -0.0258537 23.0968 -0.0262074 22.9255C-0.0270301 22.5211 -0.0269392 22.1167 -0.0262718 21.7123C-0.0255991 21.2955 -0.0264238 20.8787 -0.0279942 20.4618C-0.0292934 20.1036 -0.0296814 19.7454 -0.0293376 19.3871C-0.0291403 19.1733 -0.0292808 18.9595 -0.0302898 18.7458C-0.0313661 18.5073 -0.0305397 18.2689 -0.0295334 18.0304C-0.0300999 17.9598 -0.0306664 17.8892 -0.03125 17.8165C-0.0279818 17.447 -0.0195411 17.2117 0.234239 16.9336C0.54025 16.6959 0.858461 16.7125 1.23033 16.7578C1.49856 16.8849 1.63819 17.0155 1.75768 17.2852C1.78202 17.5127 1.77809 17.7388 1.77484 17.9675C1.77459 18.0334 1.77434 18.0993 1.77409 18.1672C1.77311 18.3773 1.7709 18.5875 1.76866 18.7976C1.76778 18.9402 1.76698 19.0829 1.76626 19.2255C1.76432 19.5748 1.76138 19.9241 1.75768 20.2734C3.77101 20.4473 5.43248 19.8845 7.27056 19.1542C7.77667 18.9533 8.28612 18.7629 8.79785 18.5767C8.8362 18.5628 8.87455 18.5488 8.91406 18.5344C9.06601 18.4791 9.21796 18.4238 9.36995 18.3686C9.75295 18.2295 10.1354 18.089 10.5177 17.9478C10.5757 17.9265 10.6338 17.9051 10.6937 17.8832C11.0985 17.7334 11.4971 17.5709 11.8944 17.4023C11.863 17.3899 11.8315 17.3775 11.7991 17.3647C11.0334 17.0623 10.2681 16.7591 9.50308 16.4549C9.13312 16.3079 8.76305 16.1611 8.39272 16.0149C8.03532 15.8739 7.67825 15.7321 7.32136 15.5898C7.18515 15.5357 7.04884 15.4818 6.91242 15.4281C6.72135 15.353 6.53068 15.2769 6.34008 15.2006C6.2836 15.1786 6.22712 15.1567 6.16894 15.134C5.79151 14.9813 5.56156 14.8172 5.33189 14.4727C5.29222 14.153 5.29223 13.8621 5.41979 13.5645C5.77374 13.2105 6.31011 13.0758 6.77202 12.9117C6.88203 12.8722 6.99205 12.8327 7.10206 12.7932C7.21838 12.7515 7.33476 12.7099 7.45115 12.6684C7.69169 12.5826 7.9321 12.4964 8.17247 12.4101C8.25345 12.381 8.33442 12.3519 8.41539 12.3229C8.45552 12.3085 8.49564 12.2941 8.53698 12.2792C8.65884 12.2355 8.78072 12.1918 8.9026 12.1482C9.64312 11.8828 10.3826 11.6145 11.1217 11.3452C11.2318 11.3051 11.3418 11.2651 11.4519 11.225C11.6971 11.1357 11.9422 11.0464 12.1874 10.957C12.0251 10.8489 11.8932 10.7902 11.7113 10.7242C11.6492 10.7015 11.5871 10.6789 11.5231 10.6555C11.455 10.6309 11.3869 10.6063 11.3167 10.581C11.2066 10.5409 11.0965 10.5008 10.9864 10.4607C10.868 10.4177 10.7497 10.3748 10.6312 10.3319C10.384 10.2424 10.137 10.1525 9.88989 10.0626C9.54377 9.93664 9.19759 9.81082 8.85138 9.68511C8.11801 9.41881 7.38476 9.1522 6.6517 8.88503C6.41179 8.7976 6.17181 8.71034 5.93179 8.62321C5.81794 8.58185 5.70413 8.54042 5.59032 8.49896C5.45258 8.44877 5.31479 8.3987 5.17696 8.34878C4.99375 8.2819 4.81126 8.21334 4.62877 8.14454C4.56601 8.12215 4.50324 8.09976 4.43857 8.07669C3.82123 7.84356 3.82123 7.84356 3.63062 7.58325C3.49008 7.23067 3.52554 6.82766 3.52945 6.45401C3.52936 6.35659 3.52916 6.25916 3.52885 6.16173C3.5286 5.95771 3.52958 5.75374 3.53147 5.54973C3.53379 5.29027 3.53326 5.03091 3.53181 4.77144C3.53097 4.57015 3.53157 4.36888 3.5326 4.16758C3.53294 4.07205 3.53287 3.97652 3.53236 3.88099C3.52913 2.97009 3.72997 2.27754 4.3699 1.60126C4.79384 1.20105 5.36098 0.930887 5.9444 0.929476ZM5.63585 2.95533C4.91053 3.80498 5.33189 5.29575 5.33189 6.21094C7.07213 6.21094 8.81236 6.21094 10.6053 6.21094C10.6053 5.05079 10.6053 3.89063 10.6053 2.69532C9.83429 2.69191 9.83429 2.69191 9.06324 2.68959C8.74859 2.68889 8.43394 2.68807 8.11929 2.68648C7.8655 2.6852 7.61172 2.6845 7.35794 2.6842C7.2613 2.68398 7.16466 2.68356 7.06802 2.68293C6.93226 2.68207 6.79652 2.68196 6.66077 2.68201C6.58361 2.68175 6.50645 2.68149 6.42696 2.68122C6.11146 2.70179 5.8771 2.74624 5.63585 2.95533ZM12.3631 2.69532C12.3631 3.85547 12.3631 5.01563 12.3631 6.21094C14.1034 6.21094 15.8436 6.21094 17.6366 6.21094C17.6366 5.05079 17.6366 3.89063 17.6366 2.69532C15.8963 2.69532 14.1561 2.69532 12.3631 2.69532ZM19.3944 2.69532C19.3944 3.85547 19.3944 5.01563 19.3944 6.21094C21.1346 6.21094 22.8749 6.21094 24.6678 6.21094C24.8609 4.80559 24.8609 4.80559 24.4078 2.99927C24.0645 2.7062 23.7903 2.68636 23.3523 2.68866C23.2879 2.68865 23.2879 2.68865 23.2222 2.68864C23.0812 2.68868 22.9401 2.68913 22.799 2.68959C22.7009 2.6897 22.6028 2.68979 22.5047 2.68985C22.247 2.69007 21.9893 2.69064 21.7317 2.69129C21.4222 2.692 21.1128 2.69227 20.8033 2.69261C20.3337 2.69318 19.864 2.6943 19.3944 2.69532ZM9.60924 7.96875C9.77782 8.08114 9.91828 8.1404 10.108 8.20828C10.1744 8.23219 10.2408 8.25609 10.3093 8.28073C10.3816 8.30648 10.4539 8.33223 10.5284 8.35877C10.6045 8.38608 10.6806 8.41341 10.7567 8.44076C10.9583 8.51318 11.16 8.58532 11.3617 8.6574C11.6392 8.75657 11.9166 8.85605 12.1939 8.95564C12.3507 9.01191 12.5076 9.06783 12.6645 9.12352C13.0489 9.26031 13.4303 9.40171 13.8088 9.55399C13.9156 9.59616 13.9156 9.59616 14.0246 9.63918C14.1579 9.6921 14.2906 9.7464 14.4227 9.80233C14.861 9.97474 15.0982 9.96501 15.5272 9.78516C15.6581 9.739 15.7891 9.69331 15.9203 9.648C16.0688 9.5947 16.2172 9.54124 16.3656 9.48761C16.4462 9.45862 16.5267 9.42964 16.6073 9.40067C16.7757 9.34009 16.9441 9.27941 17.1124 9.21865C17.3247 9.14203 17.5371 9.06557 17.7494 8.98918C18.6311 8.67203 19.5121 8.35348 20.3905 8.02735C20.3905 8.00801 20.3905 7.98868 20.3905 7.96875C16.8327 7.96875 13.2749 7.96875 9.60924 7.96875ZM14.6408 11.998C14.5775 12.0208 14.5141 12.0436 14.4489 12.0671C14.3795 12.0923 14.3101 12.1176 14.2386 12.1436C14.1663 12.1697 14.094 12.1958 14.0196 12.2227C13.823 12.2937 13.6265 12.3649 13.4301 12.4362C13.2271 12.5098 13.024 12.5832 12.821 12.6566C12.3362 12.832 11.8516 13.0077 11.3671 13.1836C11.2958 13.2095 11.2245 13.2353 11.151 13.262C10.3635 13.5478 9.57608 13.8341 8.78893 14.1211C9.01169 14.316 9.27142 14.4084 9.54269 14.5168C9.62134 14.5487 9.62134 14.5487 9.70157 14.5812C9.8748 14.6513 10.0482 14.7209 10.2217 14.7903C10.3424 14.8388 10.4632 14.8873 10.5839 14.9358C10.8369 15.0374 11.0901 15.1386 11.3434 15.2396C11.6676 15.369 11.9912 15.4997 12.3147 15.6308C12.5638 15.7314 12.8134 15.8311 13.063 15.9305C13.1824 15.9783 13.3018 16.0264 13.4209 16.0749C13.5879 16.1427 13.7552 16.2091 13.9228 16.2753C13.9717 16.2955 14.0206 16.3157 14.071 16.3365C14.5027 16.504 14.8215 16.4657 15.2574 16.3025C15.3154 16.281 15.3734 16.2596 15.4332 16.2375C15.4951 16.214 15.557 16.1906 15.6208 16.1664C15.6869 16.1418 15.753 16.1173 15.8211 16.092C16 16.0254 16.1787 15.9584 16.3574 15.8913C16.5434 15.8215 16.7296 15.7523 16.9158 15.6831C16.9532 15.6692 16.9905 15.6553 17.029 15.641C17.1049 15.6128 17.1808 15.5846 17.2567 15.5564C17.3715 15.5137 17.4863 15.4709 17.601 15.4282C18.3546 15.1476 19.1104 14.8735 19.8668 14.6008C19.9862 14.5577 20.1057 14.5146 20.2251 14.4715C20.4951 14.3741 20.765 14.2769 21.035 14.1797C21.035 14.141 21.035 14.1023 21.035 14.0625C20.9685 14.0385 20.9019 14.0144 20.8334 13.9897C20.5695 13.8943 20.3056 13.799 20.0418 13.7036C19.9204 13.6597 19.7989 13.6158 19.6775 13.572C18.9504 13.3092 18.2237 13.0457 17.4975 12.7805C17.3856 12.7396 17.2736 12.6988 17.1617 12.6579C17.1068 12.6379 17.1068 12.6379 17.0509 12.6175C17.0145 12.6042 16.9781 12.5909 16.9406 12.5772C16.7229 12.4978 16.5053 12.4183 16.2877 12.3386C16.0846 12.2642 15.8813 12.19 15.678 12.1159C15.6169 12.0934 15.5557 12.0709 15.4927 12.0478C15.437 12.0275 15.3813 12.0072 15.3239 11.9863C15.2752 11.9685 15.2265 11.9507 15.1764 11.9323C14.968 11.8656 14.8423 11.9251 14.6408 11.998ZM14.1449 18.5679C14.0438 18.6044 14.0438 18.6044 13.9407 18.6416C13.8668 18.6685 13.7928 18.6955 13.7188 18.7225C13.642 18.7503 13.5652 18.7781 13.4884 18.8059C13.2851 18.8794 13.0819 18.9533 12.8787 19.0273C12.6771 19.1006 12.4753 19.1736 12.2735 19.2467C11.815 19.4128 11.3566 19.5794 10.8983 19.7461C10.7638 19.795 10.6292 19.8439 10.4947 19.8928C10.1995 20.0001 9.90438 20.1075 9.60924 20.2148C9.60924 20.2342 9.60924 20.2535 9.60924 20.2734C12.7223 20.2734 15.8354 20.2734 19.0428 20.2734C18.8909 20.1215 18.7189 20.0643 18.5225 19.987C18.481 19.9704 18.4396 19.9538 18.3969 19.9367C18.2596 19.8819 18.1222 19.8275 17.9847 19.7731C17.8894 19.7352 17.7941 19.6973 17.6988 19.6593C17.4989 19.5798 17.299 19.5005 17.099 19.4214C16.8424 19.3199 16.5861 19.2178 16.3298 19.1156C16.133 19.0372 15.936 18.959 15.7391 18.881C15.6445 18.8435 15.55 18.8058 15.4555 18.7681C15.3234 18.7155 15.1913 18.6633 15.059 18.6112C15.0199 18.5955 14.9807 18.5797 14.9403 18.5636C14.6237 18.4395 14.4604 18.4535 14.1449 18.5679Z" fill="#A9A9A9"/>
<path d="M24.8147 25.7954C25.0249 25.9443 25.1757 26.0909 25.3123 26.309C25.3363 26.3455 25.3604 26.3819 25.3851 26.4194C25.6106 26.8283 25.62 27.3204 25.5467 27.7739C25.406 28.2178 25.1827 28.5794 24.785 28.8286C24.7486 28.8526 24.7122 28.8766 24.6747 28.9014C24.2657 29.1268 23.7736 29.1362 23.3201 29.063C22.8762 28.9223 22.5146 28.6989 22.2655 28.3012C22.2414 28.2648 22.2174 28.2284 22.1927 28.1909C21.9672 27.782 21.9578 27.2899 22.0311 26.8364C22.1718 26.3925 22.3951 26.0309 22.7928 25.7817C22.8292 25.7577 22.8656 25.7337 22.9031 25.7089C23.499 25.3804 24.2451 25.4651 24.8147 25.7954Z" fill="#A9A9A9"/>
<path d="M7.23661 25.7954C7.44673 25.9443 7.59755 26.0909 7.7342 26.309C7.75822 26.3455 7.78224 26.3819 7.80699 26.4194C8.03246 26.8283 8.04185 27.3204 7.96858 27.7739C7.8279 28.2178 7.60453 28.5794 7.20686 28.8286C7.17045 28.8526 7.13405 28.8766 7.09654 28.9014C6.68758 29.1268 6.1955 29.1362 5.74202 29.063C5.29809 28.9223 4.93649 28.6989 4.68733 28.3012C4.66331 28.2648 4.63929 28.2284 4.61454 28.1909C4.38907 27.782 4.37968 27.2899 4.45295 26.8364C4.59363 26.3925 4.817 26.0309 5.21467 25.7817C5.25108 25.7577 5.28748 25.7337 5.32499 25.7089C5.92084 25.3804 6.66699 25.4651 7.23661 25.7954Z" fill="#A9A9A9"/>
</g>
<defs>
<clipPath id="clip0_1018_1900">
<rect width="30" height="30" fill="white"/>
</clipPath>
</defs>
</svg>
