<svg width="24" height="22" viewBox="0 0 24 22" fill="none" xmlns="http://www.w3.org/2000/svg">
<g clip-path="url(#clip0_487_344)">
<path d="M23 0C23.5523 0 24 0.447715 24 1C24 1.55228 23.5523 2 23 2H1C0.447715 2 0 1.55228 0 1C0 0.447715 0.447715 0 1 0H23Z" fill="white"/>
<path d="M17 10L17.1025 10.0049C17.6067 10.0562 18 10.4823 18 11C18 11.5177 17.6067 11.9438 17.1025 11.9951L17 12H1C0.447715 12 0 11.5523 0 11C0 10.4477 0.447715 10 1 10H17Z" fill="white"/>
<path d="M11 20L11.1025 20.0049C11.6067 20.0562 12 20.4823 12 21C12 21.5177 11.6067 21.9438 11.1025 21.9951L11 22H1C0.447715 22 0 21.5523 0 21C0 20.4477 0.447715 20 1 20H11Z" fill="white"/>
</g>
<defs>
<clipPath id="clip0_487_344">
<rect width="24" height="22" fill="white"/>
</clipPath>
</defs>
</svg>
