<svg width="22" height="22" viewBox="0 0 22 22" fill="none" xmlns="http://www.w3.org/2000/svg">
<path d="M1.72282 0.295576C1.32872 -0.0985254 0.689678 -0.0985254 0.295576 0.295576C-0.0985254 0.689678 -0.0985254 1.32872 0.295576 1.72282L1.72282 0.295576ZM20.2772 21.7044C20.6713 22.0985 21.3103 22.0985 21.7044 21.7044C22.0985 21.3103 22.0985 20.6713 21.7044 20.2772L20.2772 21.7044ZM0.295576 20.2772C-0.0985254 20.6713 -0.0985254 21.3103 0.295576 21.7044C0.689678 22.0985 1.32872 22.0985 1.72282 21.7044L0.295576 20.2772ZM21.7044 1.72282C22.0985 1.32872 22.0985 0.689678 21.7044 0.295576C21.3103 -0.0985254 20.6713 -0.0985254 20.2772 0.295576L21.7044 1.72282ZM0.295576 1.72282L20.2772 21.7044L21.7044 20.2772L1.72282 0.295576L0.295576 1.72282ZM1.72282 21.7044L21.7044 1.72282L20.2772 0.295576L0.295576 20.2772L1.72282 21.7044Z" fill="white"/>
</svg>
