<svg width="183" height="20" viewBox="0 0 183 20" fill="none" xmlns="http://www.w3.org/2000/svg">
<path d="M16.464 0.999999H21.972L13.572 11.704V19H8.592V11.764L0.156 0.999999H5.664L11.064 7.888L16.464 0.999999ZM41.2487 19H35.9447L34.4447 15.532H25.1447L23.6447 19H18.3287L26.5247 0.999999H33.0647L41.2487 19ZM29.7887 4.792L26.8727 11.536H32.7167L29.7887 4.792ZM58.0974 13.36V0.999999H62.9214V19H56.6574L47.7774 6.364V19H42.9414V0.999999H49.3854L58.0974 13.36ZM66.2618 19V0.999999H71.2418V19H66.2618ZM78.8421 13.096C78.9541 13.856 79.4101 14.456 80.2101 14.896C81.0101 15.328 82.0661 15.544 83.3781 15.544C84.6101 15.544 85.5701 15.384 86.2581 15.064C86.9541 14.744 87.3021 14.288 87.3021 13.696C87.3021 13.376 87.2141 13.112 87.0381 12.904C86.8621 12.688 86.5621 12.512 86.1381 12.376C85.7221 12.24 85.1421 12.136 84.3981 12.064L81.0621 11.752C78.6061 11.528 76.8101 10.976 75.6741 10.096C74.5461 9.208 73.9821 7.976 73.9821 6.4C73.9821 5.176 74.3421 4.132 75.0621 3.268C75.7821 2.396 76.7981 1.736 78.1101 1.288C79.4301 0.831999 80.9781 0.603999 82.7541 0.603999C84.4661 0.603999 85.9981 0.851999 87.3501 1.348C88.7021 1.844 89.7701 2.54 90.5541 3.436C91.3461 4.332 91.7821 5.368 91.8621 6.544H86.7981C86.7101 5.896 86.3021 5.388 85.5741 5.02C84.8541 4.644 83.8821 4.456 82.6581 4.456C81.5221 4.456 80.6301 4.608 79.9821 4.912C79.3421 5.216 79.0221 5.648 79.0221 6.208C79.0221 6.648 79.2221 6.992 79.6221 7.24C80.0221 7.48 80.7221 7.652 81.7221 7.756L85.3101 8.104C87.0141 8.264 88.3781 8.54 89.4021 8.932C90.4261 9.324 91.1701 9.86 91.6341 10.54C92.0981 11.22 92.3301 12.08 92.3301 13.12C92.3301 14.368 91.9541 15.468 91.2021 16.42C90.4501 17.364 89.3901 18.096 88.0221 18.616C86.6541 19.136 85.0741 19.396 83.2821 19.396C81.4341 19.396 79.7981 19.136 78.3741 18.616C76.9501 18.088 75.8381 17.348 75.0381 16.396C74.2381 15.444 73.8181 14.344 73.7781 13.096H78.8421ZM111.358 9.688H120.898V19H117.382L117.142 16.588C116.366 17.468 115.39 18.156 114.214 18.652C113.046 19.148 111.69 19.396 110.146 19.396C108.25 19.396 106.53 19.028 104.986 18.292C103.442 17.548 102.222 16.468 101.326 15.052C100.43 13.636 99.9823 11.952 99.9823 10C99.9823 8.04 100.434 6.356 101.338 4.948C102.242 3.532 103.482 2.456 105.058 1.72C106.642 0.975999 108.43 0.603999 110.422 0.603999C112.35 0.603999 114.042 0.903999 115.498 1.504C116.962 2.104 118.134 2.936 119.014 4C119.902 5.064 120.478 6.292 120.742 7.684H115.726C115.566 7.084 115.242 6.564 114.754 6.124C114.274 5.684 113.662 5.348 112.918 5.116C112.182 4.876 111.354 4.756 110.434 4.756C109.306 4.756 108.334 4.956 107.518 5.356C106.702 5.748 106.074 6.336 105.634 7.12C105.194 7.904 104.974 8.864 104.974 10C104.974 11.152 105.21 12.128 105.682 12.928C106.162 13.728 106.842 14.332 107.722 14.74C108.61 15.148 109.662 15.352 110.878 15.352C112.11 15.352 113.19 15.168 114.118 14.8C115.054 14.424 115.774 13.888 116.278 13.192H111.358V9.688ZM136.279 19L131.455 12.52H128.851V19H123.871V0.999999H134.563C135.923 0.999999 137.119 1.24 138.151 1.72C139.191 2.2 139.995 2.88 140.563 3.76C141.139 4.632 141.427 5.64 141.427 6.784C141.427 7.688 141.243 8.512 140.875 9.256C140.507 9.992 139.979 10.616 139.291 11.128C138.611 11.64 137.807 12.012 136.879 12.244L142.051 19H136.279ZM128.851 4.696V8.872H133.879C134.663 8.872 135.279 8.688 135.727 8.32C136.175 7.952 136.399 7.44 136.399 6.784C136.399 6.128 136.175 5.616 135.727 5.248C135.287 4.88 134.671 4.696 133.879 4.696H128.851ZM149.566 11.812L149.062 14.968H160.462V19H143.722L145.09 10L143.722 0.999999H160.342V5.032H149.062L149.566 8.188H159.646V11.812H149.566ZM176.276 8.572L182.648 19H176.996L173.132 12.448L167.816 19H163.316V0.999999H168.272V12.328L177.14 0.999999H182.408L176.276 8.572Z" fill="url(#paint0_linear_156_1802)"/>
<defs>
<linearGradient id="paint0_linear_156_1802" x1="-4.42794e-08" y1="0.5" x2="183" y2="19" gradientUnits="userSpaceOnUse">
<stop stop-color="#C0C0C0"/>
<stop offset="1" stop-color="white"/>
</linearGradient>
</defs>
</svg>
